<svg xmlns="http://www.w3.org/2000/svg" width="22" height="22" viewBox="0 0 22 22">
    <path fill="#FFF" fill-rule="evenodd" d="M10.87 2.298c-.634.058-1.078.543-1.078 1.202L9.79 9.79 3.5 9.793c-.703 0-1.208.505-1.208 1.208l.006.13c.058.634.543 1.078 1.202 1.078h6.29l.002 6.292c0 .703.505 1.208 1.208 1.208l.13-.006c.634-.058 1.078-.543 1.078-1.202v-6.292H18.5c.703 0 1.208-.505 1.208-1.208l-.006-.13c-.058-.634-.543-1.078-1.202-1.078l-6.292-.001V3.5c0-.703-.505-1.208-1.208-1.208l-.13.006z"/>
</svg>
