<svg xmlns="http://www.w3.org/2000/svg" width="21" height="20" viewBox="0 0 21 20">
    <g fill="none" fill-rule="evenodd">
        <g fill="#2D89FF">
            <g>
                <g>
                    <path d="M10.417 0c4.372 0 7.916 3.465 7.916 7.738 0 1.86-.67 3.567-1.79 4.901l1.685 4.652c.15.413-.19.827-.62.794l-.08-.011-3.031-.625-1.897 2.326c-.269.33-.782.286-.997-.06l-.041-.078-1.09-2.499-1.157 2.478c-.169.36-.637.457-.94.216l-.062-.057-2.043-2.146-2.972.53c-.424.076-.782-.287-.71-.686l.02-.08 1.577-4.882C3.129 11.197 2.5 9.54 2.5 7.738 2.5 3.465 6.044 0 10.417 0zM5.143 13.51l-1.068 3.298 2.305-.41c.175-.031.354.014.491.122l.065.058 1.647 1.73 1.241-2.655-.09-.205c-1.757-.146-3.35-.854-4.591-1.938zm10.451.083c-1.236 1.045-2.805 1.722-4.531 1.858l1.22 2.8 1.495-1.833c.126-.154.32-.236.518-.223l.085.012 2.333.48-1.12-3.094zm-5.177-12.4c-3.699 0-6.697 2.93-6.697 6.545 0 3.615 2.998 6.546 6.697 6.546 3.698 0 6.696-2.93 6.696-6.546 0-3.615-2.998-6.545-6.696-6.545zm0 .8c3.246 0 5.878 2.572 5.878 5.745 0 3.174-2.632 5.746-5.878 5.746-3.247 0-5.878-2.572-5.878-5.746 0-3.173 2.631-5.745 5.878-5.745zm0 1.193c-2.573 0-4.658 2.038-4.658 4.552 0 2.515 2.085 4.553 4.658 4.553 2.572 0 4.657-2.038 4.657-4.553 0-2.514-2.085-4.552-4.657-4.552zm.016 1.387l.934 2.276 2.32.154-1.818 1.617.575 2.315-2.058-1.277-1.965 1.277.546-2.406-1.789-1.526 2.395-.21.86-2.22z" transform="translate(-825 -454) translate(805.5 394) translate(0 48) translate(20 12)"/>
                </g>
            </g>
        </g>
    </g>
</svg>
