<svg xmlns="http://www.w3.org/2000/svg" width="21" height="20" viewBox="0 0 21 20">
    <g fill="none" fill-rule="evenodd">
        <g fill="#95A1AC">
            <g>
                <g>
                    <g>
                        <path d="M7.158 2.447c2.47 0 4.473 2.019 4.473 4.51v1.805c-.003 1.397-.649 2.7-1.726 3.541l-.064.048v.306l3.349 1.353c.68.273 1.125.936 1.125 1.674v3.9H0v-3.902c.002-.736.447-1.397 1.125-1.67l3.349-1.353v-.308l-.064-.048c-1.023-.8-1.657-2.015-1.72-3.334l-.006-.209V6.956c0-2.49 2.003-4.51 4.474-4.51zm0 1.804c-1.483 0-2.684 1.211-2.684 2.705v1.802c.002.962.513 1.849 1.34 2.327l.449.26v1.315c0 .737-.446 1.4-1.125 1.673L1.79 15.686v2.093h10.737v-2.094l-3.348-1.353c-.678-.273-1.124-.934-1.126-1.673v-1.314l.45-.26c.827-.478 1.338-1.365 1.34-2.325V6.956c0-1.494-1.202-2.705-2.684-2.705zM16.776.417v5.17l2.277-2.292.947.955-3.895 3.926L12.21 4.25l.951-.96 2.273 2.296V.416h1.342z" transform="translate(-1179 -570) translate(1159.5 510) translate(0 48) translate(20 12)"/>
                    </g>
                </g>
            </g>
        </g>
    </g>
</svg>
