<svg xmlns="http://www.w3.org/2000/svg" xmlns:xlink="http://www.w3.org/1999/xlink" width="24" height="24" viewBox="0 0 24 24" style="">
    <defs>
        <path id="prefix__a" d="M8.875 7h1.875V5.125H8.875V7zm0 7.5h1.875V8.125H8.875V14.5zM9.813.25c-2.555 0-4.956.995-6.762 2.8C1.244 4.858.25 7.259.25 9.814c0 5.272 4.29 9.562 9.563 9.562h.001c2.554 0 4.955-.995 6.761-2.8 1.806-1.807 2.8-4.208 2.8-6.762 0-5.273-4.29-9.563-9.563-9.563zM15.3 15.3c-1.466 1.466-3.414 2.273-5.487 2.273h-.002c-4.279 0-7.76-3.481-7.76-7.76 0-2.073.807-4.022 2.272-5.488C5.791 2.859 7.74 2.052 9.813 2.052c4.279 0 7.76 3.481 7.76 7.76 0 2.073-.807 4.022-2.272 5.488z"/>
    </defs>
    <g fill="none" fill-rule="evenodd">
        <path fill="none" d="M0 0H24V24H0z"/>
        <g transform="translate(2 2)">
            <use fill="#1E92F4" xlink:href="#prefix__a"/>
        </g>
    </g>
</svg>
