<svg xmlns="http://www.w3.org/2000/svg" width="24" height="24" viewBox="0 0 24 24">
    <g fill="none" fill-rule="evenodd">
        <g fill="#95A1AC">
            <path d="M12 0c6.627 0 12 5.372 12 12s-5.373 12-12 12C5.372 24 0 18.627 0 12 0 5.372 5.372 0 12 0zm0 1.5C6.201 1.5 1.5 6.201 1.5 12S6.201 22.5 12 22.5 22.5 17.799 22.5 12 17.799 1.5 12 1.5zm5.846 6.418c.351.343.358.906.015 1.257L10.63 16.59c-.351.36-.93.357-1.278-.005l-3.143-3.277c-.34-.354-.328-.917.027-1.257.354-.34.917-.328 1.257.027l2.506 2.613 6.59-6.756c.343-.351.905-.358 1.257-.016z"/>
        </g>
    </g>
</svg>
