<svg xmlns="http://www.w3.org/2000/svg" width="21" height="20" viewBox="0 0 21 20">
    <g fill="none" fill-rule="evenodd">
        <g fill="#F3A218">
            <g>
                <g>
                    <path d="M18.875 12.525l.046.027c.045.03.086.066.12.108.037.044.068.095.09.15l.01.032c.005.015.01.03.013.047l.007.037v.007l.006.074v6.447c0 .277-.206.505-.473.541L18.62 20H1.38c-.302 0-.547-.244-.547-.546 0-.276.206-.504.473-.54l.074-.005 3.802-.001-.023-1.62c-.004-.28.204-.513.475-.548l.075-.005 3.768.021-.023-1.617c-.005-.28.203-.513.474-.548l.075-.005 3.768.022-.023-1.618c-.004-.28.204-.513.474-.548l.075-.005 4.326.025.089.007.084.022c.027.009.054.02.08.034zM6.26 17.829l.016 1.079h3.22v-1.061l-3.236-.018zm4.295-2.15l.01.732c.01.028.016.057.02.086l.005.074v2.337h3.2v-3.21l-3.235-.018zm4.294-2.148l.012.79c.008.026.014.054.018.083l.005.074v4.43h3.19V13.55l-3.225-.018zm-3.177-9.79c.723-.405 1.531-.183 1.9.458.375.654.139 1.459-.617 1.91l.012-.008-2.403 1.515.005.316 1.392.07c.694.035 1.277.752 1.331 1.448l.004.104v2.983c0 .885-.704 1.391-1.54 1.344-.79-.046-1.477-.566-1.477-1.352l.02-1.387-1.145-.06v1.05l-.022.154-.701 2.376c-.587 1.99-3.274 1.61-3.134-.333.004-.056.017-.11.038-.162l.833-2.091.03-2.337-.067.129c-.315.826-.948 1.215-1.597 1.01l-.097-.035c-.584-.238-.947-.912-.71-1.53l1.386-3.18.025-.082c.273-.851.902-1.164 1.734-1.085l.126.015.09.014.19.035.567.127.095.015.048.004.098.014c.724.169 1.42-.086 2.58-.823l.644-.41.248-.15zm.952 1.001c-.07-.121-.216-.162-.417-.05l-.163.095-.184.113-.812.516c-1.28.79-2.164 1.08-3.211.836l.052.011c-.016 0-.032-.002-.047-.003l-.095-.012-.114-.02-.568-.128-.15-.028-.068-.01c-.44-.062-.589.01-.69.397l-.028.08-1.39 3.185.02.03c.018.026.05.062.09.079.05.02.108-.004.215-.242l.07-.169 1.154-2.216c.266-.51 1.04-.316 1.032.259l-.06 4.726c-.001.067-.014.133-.04.195l-.834 2.094.007.063c.074.458.72.516.96-.1l.03-.089.677-2.3v-1.547c0-.288.225-.522.505-.543l.071-.001 2.246.118c.294.015.522.26.518.552l-.028 1.904c0 .107.174.239.447.254.264.016.384-.07.384-.254V9.554c0-.19-.206-.457-.297-.462l-1.904-.095c-.289-.014-.516-.25-.52-.538l-.014-1.134c-.002-.19.094-.367.255-.468l2.66-1.678.09-.058c.186-.136.214-.268.15-.379zM8.675 0c1.238 0 2.242 1.002 2.242 2.238S9.913 4.476 8.675 4.476c-1.239 0-2.242-1.002-2.242-2.238S7.436 0 8.675 0zm0 1.091c-.635 0-1.15.513-1.15 1.147s.515 1.147 1.15 1.147c.635 0 1.15-.513 1.15-1.147s-.515-1.147-1.15-1.147z" transform="translate(-1179 -756) translate(1159.5 696) translate(0 48) translate(20 12)"/>
                </g>
            </g>
        </g>
    </g>
</svg>
