<?xml version="1.0" encoding="utf-8"?>
<!-- Generator: Adobe Illustrator 16.0.0, SVG Export Plug-In . SVG Version: 6.00 Build 0)  -->
<!DOCTYPE svg PUBLIC "-//W3C//DTD SVG 1.1//EN" "http://www.w3.org/Graphics/SVG/1.1/DTD/svg11.dtd">
<svg version="1.1" id="Layer_1" xmlns="http://www.w3.org/2000/svg" xmlns:xlink="http://www.w3.org/1999/xlink" x="0px" y="0px"
	 width="155.501px" height="50px" viewBox="0 0 155.501 50" enable-background="new 0 0 155.501 50" xml:space="preserve">
<title>logo /normal_beta@2x</title>
<g id="logo-_x2F_normal_x5F_beta">
	<g id="logo_new" transform="translate(0.000000, 5.000000)">
		<path id="Combined-Shape" fill="#FFFFFF" d="M141.826-0.38c2.71,0.024,5.174,0.72,7.391,2.086c2.122,1.344,3.771,3.147,4.949,5.41
			h-3.075c-2.264-3.299-5.423-4.926-9.478-4.879c-3.018,0-5.616,1.091-7.797,3.271c-2.182,2.181-3.306,4.803-3.377,7.867
			c-0.071,3.182,1.019,5.935,3.271,8.256c2.25,2.321,4.956,3.483,8.115,3.483c1.839,0,3.63-0.48,5.374-1.44
			c1.675-0.912,2.982-2.071,3.926-3.475h3.04c-1.249,2.357-2.94,4.19-5.073,5.498c-2.134,1.308-4.557,1.986-7.267,2.034
			c-3.843,0.047-7.138-1.332-9.886-4.138c-2.745-2.806-4.119-6.152-4.119-10.042c0-4.007,1.38-7.342,4.139-10.006
			C134.646,0.905,137.937-0.403,141.826-0.38z M73.045-0.026L84.608,27.2h-3.035l-3.866-9.194H65.1L61.286,27.2h-3.447L70.004-0.026
			H73.045z M105.756,0.009c3.017,0,5.422,0.831,7.214,2.493c1.791,1.662,2.663,3.79,2.616,6.382
			c-0.048,2.122-0.767,3.955-2.159,5.498c-1.393,1.544-3.115,2.411-5.168,2.599l-0.777,0.076l7.534,10.143h-3.354l-9.196-12.306
			h2.654c2.38,0,4.265-0.612,5.656-1.838c1.392-1.225,2.04-2.77,1.946-4.632c-0.071-1.697-0.685-3.076-1.84-4.137
			c-1.25-1.155-2.899-1.732-4.95-1.732h-6.082V27.2h-2.796V0.009H105.756z M71.578,3.125l-5.287,12.442h10.456L71.578,3.125z"/>
		<path id="Beta" fill="#FFFFFF" d="M61.613,42.676c2.017,0,2.88-1.354,2.88-2.614c0-1.036-0.571-2.07-1.739-2.27
			c0.995-0.306,1.261-1.221,1.261-1.898c0-1.38-1.048-2.361-2.681-2.361h-3.623v9.144H61.613z M61.228,37.169h-1.673v-2.005h1.673
			c0.65,0,0.942,0.438,0.942,0.996C62.17,36.783,61.812,37.169,61.228,37.169z M61.348,41.043h-1.792v-2.336h1.819
			c0.876,0,1.261,0.598,1.261,1.169C62.635,40.486,62.21,41.043,61.348,41.043z M68.86,42.796c1.088,0,2.176-0.425,2.76-1.209
			l-1.021-1.021c-0.372,0.438-0.996,0.69-1.619,0.69c-0.837,0-1.42-0.398-1.606-1.114h4.672c0.014-0.279,0.026-0.491,0.026-0.664
			c0-1.897-1.446-3.146-3.211-3.146c-1.779,0-3.292,1.248-3.292,3.252C65.568,41.495,66.962,42.796,68.86,42.796z M70.333,39.014
			h-2.96c0.187-0.837,0.811-1.169,1.514-1.169C69.67,37.845,70.28,38.283,70.333,39.014z M75.749,42.676v-4.844h1.313v-1.341h-1.313
			v-2.27H74.01v2.27h-1.129v1.341h1.129v4.844H75.749z M80.857,42.796c0.69,0,1.554-0.279,1.992-0.89v0.77h1.739v-6.185H82.85v0.743
			c-0.438-0.624-1.275-0.89-1.992-0.89c-1.593,0-3.038,1.235-3.038,3.226C77.819,41.562,79.265,42.796,80.857,42.796z M81.19,41.177
			c-0.877,0-1.606-0.704-1.606-1.606c0-0.916,0.729-1.594,1.606-1.594c0.81,0,1.605,0.639,1.605,1.594
			C82.796,40.513,82.04,41.177,81.19,41.177z"/>
		<path id="Fill-7" fill="#FFFFFF" d="M38.881,25.36c-1.801-0.001-3.081-1.181-4.58-2.07c-1.499-0.889-3.151-1.517-4.862-1.85
			c-3.581-0.698-7.343-0.066-10.502,1.758c-3.197,1.847-5.642,4.831-6.813,8.333c-0.577,1.726-0.858,3.57-0.779,5.39
			c0.101,2.308,0.22,4.506-1.758,6.101c-1.679,1.354-4.082,1.54-5.949,0.462c-2.521-1.455-3.382-4.68-1.927-7.201
			c0.93-1.611,2.478-2.069,4.007-2.887c1.573-0.843,2.989-2.029,4.152-3.377c2.369-2.746,3.687-6.299,3.688-9.924
			c0-3.52-1.235-6.874-3.541-9.536C8.894,9.263,7.564,8.155,6.13,7.217C4.547,6.181,2.703,5.628,1.707,3.905
			C0.252,1.387,1.114-1.841,3.635-3.292c2.524-1.456,5.746-0.593,7.205,1.927c0.864,1.493,0.566,3.214,0.509,4.891
			c-0.058,1.728,0.214,3.458,0.759,5.098c1.168,3.512,3.621,6.514,6.827,8.364c3.008,1.737,6.53,2.362,9.953,1.767
			c1.738-0.303,3.418-0.902,4.978-1.727c1.676-0.886,3.006-2.209,5.018-2.208c2.907,0.001,5.27,2.362,5.268,5.272
			C44.154,23,41.793,25.362,38.881,25.36"/>
	</g>
</g>
</svg>
