<svg xmlns="http://www.w3.org/2000/svg" width="24" height="24" viewBox="0 0 24 24">
    <path fill="#95A1AC" fill-rule="evenodd" d="M19.66 4C20.952 4 22 5.048 22 6.34v11.915c0 1.293-1.048 2.34-2.34 2.34H4.34c-1.292 0-2.34-1.047-2.34-2.34V6.34C2 5.048 3.048 4 4.34 4zm0 1.277H4.34c-.587 0-1.063.476-1.063 1.063v11.915c0 .588.476 1.064 1.063 1.064h15.32c.587 0 1.063-.476 1.063-1.064V6.34c0-.587-.476-1.063-1.063-1.063zM7.745 13.948l.902.903-2.604 2.605-.903-.903 2.605-2.605zm8.51 0l2.605 2.605-.903.903-2.604-2.605.902-.903zm1.702-6.808l.903.903-6.86 6.86-6.86-6.86.903-.903L12 13.097l5.957-5.957z"/>
</svg>
