<svg xmlns="http://www.w3.org/2000/svg" width="24" height="24" viewBox="0 0 24 24">
    <path fill="#95A1AC" fill-rule="evenodd" d="M17.331 3c1.19 0 1.51.581 4.015 3.086.872.873.872 2.29 0 3.163l-2.068 2.068-5.596-5.596C15.853 3.55 16.167 3 17.332 3zm1.947 5.884c1.505-1.505 1.57-.863-1.581-4.014-.2-.2-.53-.2-.73 0l-.852.851 3.163 3.163zM5.84 13.561l6.868-6.867 1.216 1.217-6.582 6.582-1.192 3.54.815.815 3.54-1.193 6.582-6.581 1.216 1.216-6.866 6.867L3 21.999l2.841-8.438zm2.795 1.585l6.263-6.262 1.216 1.217-6.263 6.261c-.803.804-2.021-.411-1.216-1.216z"/>
</svg>
