<svg xmlns="http://www.w3.org/2000/svg" width="24" height="24" viewBox="0 0 24 24">
    <path fill="#FFF" fill-rule="evenodd" d="M4 18c1.105 0 2 .895 2 2v2c0 1.105-.895 2-2 2H2c-1.105 0-2-.895-2-2v-2c0-1.105.895-2 2-2h2zm9 0c1.105 0 2 .895 2 2v2c0 1.105-.895 2-2 2h-2c-1.105 0-2-.895-2-2v-2c0-1.105.895-2 2-2h2zm9 0c1.105 0 2 .895 2 2v2c0 1.105-.895 2-2 2h-2c-1.105 0-2-.895-2-2v-2c0-1.105.895-2 2-2h2zm0-18c1.105 0 2 .895 2 2v12c0 1.105-.895 2-2 2H2c-1.105 0-2-.895-2-2V2C0 .895.895 0 2 0h20z"/>
</svg>
