<svg xmlns="http://www.w3.org/2000/svg" width="20" height="21" viewBox="0 0 20 21">
    <g fill="none" fill-rule="evenodd">
        <g fill="#95A1AC">
            <g>
                <g>
                    <g>
                        <path d="M9.428.227c.321-.303.823-.303 1.144 0 2.386 2.252 5.434 3.674 8.692 4.057.42.05.736.405.736.828 0 .14-.009.385-.034.721-.043.55-.118 1.162-.235 1.819-.335 1.876-.939 3.753-1.881 5.512-1.631 3.044-4.102 5.4-7.54 6.776-.2.08-.42.08-.62 0-3.438-1.375-5.909-3.732-7.54-6.776C1.208 11.404.604 9.528.27 7.652.151 6.995.076 6.384.033 5.833.01 5.497 0 5.252 0 5.112c0-.423.316-.779.736-.828C3.994 3.901 7.042 2.479 9.428.227zM1.706 5.83c.04.465.106.978.204 1.529.306 1.714.857 3.426 1.71 5.018 1.404 2.62 3.486 4.651 6.38 5.888 2.894-1.237 4.976-3.267 6.38-5.888.853-1.592 1.404-3.304 1.71-5.018.098-.55.164-1.064.204-1.53-3.068-.504-5.938-1.845-8.294-3.874-2.356 2.029-5.226 3.37-8.294 3.875z" transform="translate(-1087 -717) translate(1067 662.75) translate(0 43) translate(20 12)"/>
                    </g>
                </g>
            </g>
        </g>
    </g>
</svg>
