<svg xmlns="http://www.w3.org/2000/svg" width="20" height="21" viewBox="0 0 20 21">
    <g fill="none" fill-rule="evenodd">
        <g fill="#95A1AC">
            <g>
                <g>
                    <g>
                        <path d="M6.25 10h1.563V7.812H6.25V10zm0 3.75h1.563v-2.188H6.25v2.188zm2.813 0h1.562v-2.188H9.062v2.188zm6.078-9.688h-1.079V2.337c0-.603-.505-1.086-1.108-1.086h-6.25c-.603 0-1.079.483-1.079 1.086v1.727H4.516c-.603 0-1.079.482-1.079 1.085V18.75h4.376v-1.563H5V5.626h2.188V2.812H12.5v2.813h2.188v11.563h-4.063v-1.25H9.062v2.812h7.188V5.148c0-.603-.506-1.085-1.109-1.085zm-1.704 3.75h-1.562V10h1.563V7.812zm-1.562 5.938h1.563v-2.188h-1.563v2.188zm-1.25-5.938H9.062V10h1.563V7.812z" transform="translate(-1087 -762) translate(1067 662.75) translate(0 88) translate(20 12)"/>
                    </g>
                </g>
            </g>
        </g>
    </g>
</svg>
