<svg xmlns="http://www.w3.org/2000/svg" width="20" height="20" viewBox="0 0 20 20">
    <path fill="#FE5444" fill-rule="evenodd" d="M6.667.833l-.001 2.5h6.667v-2.5H15l-.001 2.5H19c.513 0 .936.386.993.884l.007.116V19c0 .552-.448 1-1 1H1c-.552 0-1-.448-1-1V4.333c0-.552.448-1 1-1h4v-2.5h1.667zM18.333 5H1.667v13.333h16.666V5zm-5.387 3.72c.326.326.326.853 0 1.179l-1.768 1.767 1.768 1.768c.326.326.326.854 0 1.179-.325.325-.853.325-1.178 0L10 12.845l-1.768 1.768c-.325.325-.853.325-1.178 0-.326-.325-.326-.853 0-1.179l1.767-1.768L7.054 9.9c-.326-.326-.326-.853 0-1.179.325-.325.853-.325 1.178 0L10 10.488l1.768-1.768c.325-.325.853-.325 1.178 0z"/>
</svg>
