<svg xmlns="http://www.w3.org/2000/svg" width="16" height="16" viewBox="0 0 16 16">
    <path fill="#FFF" fill-rule="evenodd" d="M5.333.667v2h5.333v-2H12v2h3c.513 0 .936.386.993.883l.007.117V15c0 .552-.448 1-1 1H1c-.552 0-1-.448-1-1V3.667c0-.553.448-1 1-1h2.999l.001-2h1.333zM14.667 4H1.333v10.667h13.334V4zM8 6c.368 0 .667.298.667.667l-.001 2h2c.369 0 .667.298.667.666 0 .369-.298.667-.666.667H8.666v2c0 .368-.298.667-.666.667-.368 0-.667-.299-.667-.667v-2h-2c-.368 0-.666-.298-.666-.667 0-.368.298-.666.666-.666h2v-2C7.333 6.298 7.632 6 8 6z"/>
</svg>
