<svg xmlns="http://www.w3.org/2000/svg" xmlns:xlink="http://www.w3.org/1999/xlink" width="1440" height="1011" viewBox="0 0 1440 1011">
    <defs>
        <path id="qr62h7ptba" d="M0 0H1440V1011H0z"/>
    </defs>
    <g fill="none" fill-rule="evenodd">
        <mask id="9zimwsmf4b" fill="#fff">
            <use xlink:href="#qr62h7ptba"/>
        </mask>
        <use fill="#212529" xlink:href="#qr62h7ptba"/>
        <g fill="#FFF" mask="url(#9zimwsmf4b)" opacity=".038">
            <path d="M543.643 362.378c-30.026-.028-51.374-19.598-76.362-34.355-24.997-14.765-52.544-25.19-81.074-30.722-59.712-11.584-122.447-1.087-175.121 29.194-53.303 30.642-94.08 80.198-113.603 138.32-9.617 28.628-14.303 59.267-12.983 89.458 1.676 38.307 3.663 74.803-29.317 101.266-27.996 22.465-68.06 25.56-99.195 7.67-42.04-24.157-56.4-77.686-32.131-119.537 15.507-26.74 41.316-34.339 66.815-47.929 26.224-13.974 49.845-33.683 69.232-56.05 39.502-45.572 61.484-104.549 61.49-164.733.007-58.422-20.591-114.113-59.039-158.284-18.733-21.52-40.909-39.905-64.81-55.475C-28.862 44-59.602 34.83-76.213 6.218c-24.25-41.785-9.894-95.372 32.15-119.471 42.086-24.167 95.814-9.848 120.13 31.975C90.481-56.484 85.505-27.92 84.558-.08c-.978 28.673 3.574 57.405 12.665 84.62 19.48 58.308 60.366 108.13 113.822 138.847 50.163 28.822 108.886 39.21 165.946 29.322 28.99-5.025 57.014-14.975 83.001-28.657 27.938-14.71 50.126-36.684 83.672-36.656 48.48.004 87.873 39.194 87.833 87.516.06 48.294-39.307 87.508-87.855 87.466"/>
        </g>
    </g>
</svg>
