<svg xmlns="http://www.w3.org/2000/svg" width="20" height="21" viewBox="0 0 20 21">
    <path fill="#95A1AC" fill-rule="evenodd" d="M6.667.958l-.001 2.5h6.667v-2.5H15l-.001 2.5H19c.513 0 .936.386.993.884l.007.116v14.667c0 .513-.386.936-.883.993l-.117.007H1c-.513 0-.936-.386-.993-.883L0 19.125V4.458c0-.513.386-.935.883-.993L1 3.458h4v-2.5h1.667zm11.666 7.5H1.666v10h16.667v-10zM6.667 14.292v2.5H3.333v-2.5h3.334zm5 0v2.5H8.333v-2.5h3.334zm5 0v2.5h-3.334v-2.5h3.334zm-10-4.167v2.5H3.333v-2.5h3.334zm5 0v2.5H8.333v-2.5h3.334zm5 0v2.5h-3.334v-2.5h3.334zm1.666-5H1.667l-.001 1.666h16.667V5.125z"/>
</svg>
