<svg xmlns="http://www.w3.org/2000/svg" xmlns:xlink="http://www.w3.org/1999/xlink" width="24" height="24" viewBox="0 0 24 24">
    <defs>
        <path id="prefix__a" d="M19.384 6.25h-1.713L16.361 4H7.92L6.6 6.25H4.83C3.26 6.25 2 7.52 2 9.116v7.715c0 1.595 1.259 2.919 2.83 2.919h2.92c-.67-.375-1.241-1.125-1.69-1.875H4.83c-.537 0-.955-.483-.955-1.044V9.116c0-.561.418-.991.954-.991h2.84l1.32-2.25h6.3l1.31 2.25h2.785c.537 0 .991.43.991.99v7.716c0 .561-.454 1.044-.99 1.044h-1.23c-.45.75-1.022 1.5-1.69 1.875h2.92c1.57 0 2.865-1.324 2.865-2.919V9.116c0-1.595-1.295-2.866-2.866-2.866zM12.126 8.5C9.024 8.5 6.5 11.024 6.5 14.125c0 3.102 2.524 5.625 5.626 5.625 3.101 0 5.624-2.523 5.624-5.625 0-3.101-2.523-5.625-5.624-5.625zm0 9.45c-2.11 0-3.826-1.716-3.826-3.825s1.716-3.825 3.826-3.825c2.109 0 3.824 1.716 3.824 3.825 0 2.11-1.715 3.825-3.824 3.825z"/>
    </defs>
    <g fill="none" fill-rule="evenodd">
        <use fill="#95A1AC" xlink:href="#prefix__a"/>
    </g>
</svg>
