<svg xmlns="http://www.w3.org/2000/svg" width="25" height="25" viewBox="0 0 25 25">
    <path fill="#18B99A" fill-rule="evenodd" d="M22.91 11.516l.44.839c.442.841.674 1.783.677 2.774-.054 1.734-.786 3.36-2.009 4.517l-.207.187v4.579l-4.081-2.53c-.783.182-1.578.273-2.368.273-1.88.025-3.726-.49-5.334-1.486l-.299-.193-.775-.518 1.004-1.601.775.518c1.37.917 2.973 1.395 4.617 1.373.645 0 1.289-.072 1.919-.214l.376-.093.376-.103 1.944 1.204v-2.168l.389-.285c1.108-.814 1.784-2.117 1.827-3.488-.002-.561-.121-1.115-.35-1.622l-.104-.215-.44-.838 1.623-.91zM10.92.412c5.972 0 10.892 3.953 10.892 8.964 0 5.012-4.92 8.965-10.894 8.965-.983-.002-1.962-.113-2.922-.334l.033.007.294.063-6.08 3.142-.002-6.41-.09-.092C.892 13.353.14 11.567.038 9.663l-.01-.287c0-5.011 4.92-8.964 10.892-8.964zm0 1.907c-5.04 0-9.047 3.219-9.047 7.038.032 1.658.724 3.229 1.912 4.343l.303.284v4.148l3.989-2.06.32.074c.828.19 1.674.286 2.522.287 5.04 0 9.047-3.219 9.047-7.057 0-3.838-4.007-7.057-9.047-7.057z"/>
</svg>
