<svg xmlns="http://www.w3.org/2000/svg" xmlns:xlink="http://www.w3.org/1999/xlink" width="24" height="24" viewBox="0 0 24 24" style="background:#fff">
    <defs>
        <path id="prefix__a" d="M22.498 15.924l-.317-.278c-.04-.036-3.982-3.555-4.373-8.688l-.313-4.108-.442-.249c-.08-.045-1.988-1.101-4.956-1.101h-.142c-2.97 0-4.872 1.057-4.952 1.102l-.44.25-.309 4.107c-.384 5.128-4.39 8.647-4.428 8.68l-.326.28V18h21l-.002-2.076zm-18.455.201c1.376-1.495 3.827-4.724 4.15-9.03l.231-3.11c.623-.25 1.872-.647 3.53-.647h.143c1.661 0 2.915.398 3.538.647l.234 3.11c.328 4.308 2.747 7.537 4.1 9.03H4.044zM12 20.665c-.811 0-1.506-.483-1.797-1.165h-2.02c.347 1.72 1.925 3 3.817 3 1.892 0 3.47-1.28 3.817-3h-2.02c-.29.682-.986 1.165-1.797 1.165z"/>
    </defs>
    <g fill="none" fill-rule="evenodd">
        <path fill="#FFF" d="M0 0H24V24H0z"/>
        <use fill="#95A1AC" xlink:href="#prefix__a"/>
    </g>
</svg>
