<svg xmlns="http://www.w3.org/2000/svg" width="24" height="25" viewBox="0 0 24 25">
    <g fill="none" fill-rule="evenodd">
        <g fill="#95A1AC">
            <g>
                <g>
                    <g>
                        <path d="M20.82 11.419l.216 1.707.025.01c.29.117.566.265.822.44l.189.138.02.016 1.61-.67 1.37 2.339-1.393 1.039.01.057.02.181.012.182.004.183c0 .121-.005.243-.016.363l-.02.18-.01.058 1.392 1.04-1.37 2.338-1.61-.67-.02.016c-.246.19-.513.353-.795.485l-.215.094-.025.009-.216 1.707h-2.74l-.216-1.707-.025-.01c-.29-.116-.565-.265-.822-.44l-.189-.138-.02-.016-1.61.67-1.369-2.339 1.391-1.04-.009-.057c-.036-.27-.045-.544-.027-.817l.027-.271.009-.058-1.391-1.04 1.37-2.338 1.609.67.02-.016c.247-.19.514-.353.796-.485l.215-.093.025-.01.217-1.707h2.739zM8.424 1.339c2.515 0 4.567 1.982 4.679 4.47l.005.214V7.9c-.003 1.365-.602 2.644-1.613 3.519l-.194.159-.068.05.001.317 2.332.935-.957 1.635-2.07-.83c-.663-.264-1.113-.88-1.172-1.585l-.007-.152v-1.365l.47-.27c.813-.466 1.334-1.305 1.397-2.23l.007-.185V6.023c0-1.552-1.258-2.81-2.81-2.81-1.495 0-2.717 1.166-2.806 2.639l-.005.171v1.872c.002.936.472 1.804 1.245 2.319l.158.098.47.27v1.365c0 .715-.406 1.363-1.038 1.677l-.139.062-3.507 1.405v2.174h10.413l-1.358 1.017.502.857H.929v-4.053c.002-.713.408-1.359 1.039-1.672l.138-.062 3.507-1.406v-.32l-.067-.049c-1.004-.779-1.65-1.938-1.782-3.208l-.02-.255-.005-.217V6.023c0-2.587 2.097-4.684 4.685-4.684zM19.45 15.635c-.776 0-1.405.629-1.405 1.405s.629 1.405 1.405 1.405 1.405-.629 1.405-1.405-.629-1.405-1.405-1.405z" transform="translate(-28 -163) translate(0 13) translate(0 127) translate(27 23.467)"/>
                    </g>
                </g>
            </g>
        </g>
    </g>
</svg>
