<svg xmlns="http://www.w3.org/2000/svg" width="24" height="24" viewBox="0 0 24 24">
    <path fill="#95A1AC" fill-rule="evenodd" d="M11.314.273c.385-.364.987-.364 1.372 0 2.863 2.701 6.521 4.408 10.43 4.868.504.059.884.486.884.993 0 .168-.01.463-.041.866-.05.66-.142 1.394-.282 2.182-.402 2.251-1.126 4.504-2.257 6.615-1.957 3.653-4.922 6.48-9.049 8.131-.238.096-.504.096-.742 0-4.127-1.65-7.092-4.478-9.049-8.131C1.45 13.686.725 11.433.323 9.182.183 8.394.092 7.66.041 7 .011 6.597 0 6.302 0 6.134c0-.507.38-.934.883-.993 3.91-.46 7.568-2.167 10.43-4.868zM2.048 6.996c.047.558.126 1.174.244 1.834.367 2.057 1.028 4.113 2.051 6.022 1.685 3.146 4.184 5.582 7.657 7.066 3.473-1.484 5.972-3.92 7.657-7.066 1.023-1.91 1.684-3.965 2.05-6.022.119-.66.198-1.276.245-1.834-3.68-.606-7.125-2.215-9.952-4.65-2.827 2.435-6.271 4.044-9.952 4.65z"/>
</svg>
