<svg xmlns="http://www.w3.org/2000/svg" width="24" height="24" viewBox="0 0 24 24">
    <path fill="#95A1AC" fill-rule="evenodd" d="M14 21.132v2H4v-2h10zM12.042 0l-.706 1.883c-.23.612-.336 1.359-.336 2.249 0 4.447 3.552 8 8 8 .778 0 1.448-.082 2.013-.256l.236-.08 1.87-.702-.559 1.918c-.743 2.548-2.505 4.709-4.831 5.967l-.282.147-.894.447-.895-1.789.895-.447c1.37-.685 2.513-1.758 3.29-3.06l.105-.185-.227.018c-.117.007-.236.013-.356.016l-.365.006c-5.552 0-10-4.448-10-10 0-.247.007-.487.021-.721l.017-.222-.054.03C6.643 4.563 5.1 7.039 5.004 9.858L5 10.132v1H3v-1C3 5.763 5.79 1.989 9.843.658l.272-.085L12.042 0zM10 17.132v2H0v-2h10zm1-4v2H1v-2h10z"/>
</svg>
