<svg xmlns="http://www.w3.org/2000/svg" width="24" height="24" viewBox="0 0 24 24" style="background:#fff">
    <g fill="none" fill-rule="evenodd">
        <path fill="#FFF" d="M0 0H24V24H0z"/>
        <path fill="#95A1AC" d="M6.64 14.1c.295.445.6.871.9 1.279l.47.63H5.947l-1.75 4.582h15.603l-1.75-4.582h-2.06l.468-.63c.301-.408.606-.834.902-1.279h1.932l3.207 8.4h-21l3.207-8.4zM12 1.5c3.33 0 6.04 2.814 6.04 6.273 0 2.736-1.354 4.797-2.74 6.674-.677.914-2.321 3.101-2.553 3.409l-.027.036-.72.957-.72-.957s-1.852-2.46-2.58-3.445c-1.386-1.877-2.74-3.938-2.74-6.674C5.96 4.314 8.67 1.5 12 1.5zm0 4.582c-.91 0-1.647.769-1.647 1.718S11.09 9.518 12 9.518s1.647-.769 1.647-1.718c0-.95-.737-1.718-1.647-1.718z"/>
    </g>
</svg>
