<svg xmlns="http://www.w3.org/2000/svg" width="24" height="25" viewBox="0 0 24 25">
    <g fill="none" fill-rule="evenodd">
        <g fill="#95A1AC">
            <g>
                <g>
                    <g>
                        <g>
                            <path d="M8 0v3h8V0h2v3h5c.513 0 .936.386.993.883L24 4v7.385l-.665-1.137-1.335.554V9h-.858v-.006h-5.383L15.758 9H2v12h10.989l.577.984 1.931-.805.232 1.821H1c-.513 0-.936-.386-.993-.883L0 22V4c0-.513.386-.936.883-.993L1 3h5V0h2zm16 20.846V22c0 .513-.386.936-.883.993L23 23h-1.829l.23-1.821 1.934.805.665-1.138zM22 5H2v2h20V5z" transform="translate(-28 -303) translate(0 13) translate(0 267) translate(28 23.467) translate(0 1)"/>
                            <path d="M19.82 10.419l.216 1.707.025.01c.362.146.702.34 1.01.578l.02.016 1.61-.67 1.37 2.339-1.392 1.039.01.057c.016.12.026.242.032.363l.004.183c0 .182-.012.364-.036.544l-.01.057 1.392 1.04-1.37 2.338-1.61-.67-.02.016c-.308.238-.648.432-1.01.579l-.025.009-.216 1.707h-2.74l-.216-1.707-.025-.01c-.362-.146-.702-.34-1.01-.578l-.021-.016-1.61.67-1.369-2.339 1.391-1.04-.009-.057c-.048-.36-.048-.727 0-1.088l.009-.058-1.391-1.04 1.37-2.338 1.609.67.02-.016c.309-.238.649-.432 1.011-.578l.025-.01.217-1.707h2.739zm-1.37 4.216c-.776 0-1.405.629-1.405 1.405s.629 1.405 1.405 1.405 1.405-.629 1.405-1.405-.629-1.405-1.405-1.405z" transform="translate(-28 -303) translate(0 13) translate(0 267) translate(28 23.467) translate(0 1)"/>
                        </g>
                    </g>
                </g>
            </g>
        </g>
    </g>
</svg>
