<svg xmlns="http://www.w3.org/2000/svg" width="24" height="24" viewBox="0 0 24 24">
    <path fill="#95A1AC" fill-rule="evenodd" d="M20.506 2.121l1.414 1.415L3.536 21.92 2.12 20.506 20.506 2.121zM14 19.5c0 1.1-.9 2-2 2-1.05 0-1.918-.82-1.994-1.851L10 19.5h4zm3.955-9.877c.02.192.033.385.04.581L18 10.5v5l2 2v1H9.077l2-2H16v-4.924l1.955-1.953zM12 2c.781 0 1.42.593 1.493 1.355l.007.145v.68c.735.174 1.39.472 1.955.871l-1.467 1.467C13.426 6.188 12.758 6 12 6c-2.417 0-3.91 1.903-3.996 4.282L8 10.5v2.006l-2 2V10.5c0-2.99 1.545-5.489 4.25-6.255l.25-.065V3.5c0-.83.67-1.5 1.5-1.5z"/>
</svg>
