<svg xmlns="http://www.w3.org/2000/svg" width="24" height="24" viewBox="0 0 24 24">
    <path fill="#95A1AC" fill-rule="evenodd" d="M21 0l1.414 1.414-3.318 3.317 2.224 9.78c1.477.355 2.59 1.646 2.675 3.211l.005.192c0 1.933-1.567 3.5-3.5 3.5h-.501v2h-2v-2h-12v2H4v-2h-.997C1.472 21.418.196 20.27.02 18.768l-.015-.174c-.092-1.587 1.07-2.97 2.649-3.15l.056-.005 16.553-.954-1.979-8.708-3.841 1.537-.743-1.857 4.736-1.895L21 0zm-.443 16.413l-17.691 1.02-.094.017c-.432.099-.747.473-.77.915v.112c.03.527.467.938.998.937h17.5c.828 0 1.5-.671 1.5-1.5 0-.828-.672-1.5-1.443-1.501z"/>
</svg>
