<svg xmlns="http://www.w3.org/2000/svg" width="24" height="24" viewBox="0 0 24 24">
    <path fill="#95A1AC" fill-rule="evenodd" d="M5.634 16.387l.261.13-3.106 6.212L1 21.834l2.724-5.447h1.91zm.708-4c.155 0 .308.036.447.105l9.481 4.741L22.619 13l1.11 1.664-6.832 4.555c-.164.11-.357.168-.555.168-.155 0-.308-.036-.447-.105l-9.789-4.895H1.342v-2h5zM22.065 2l1.664 1.11-6.555 9.832c-.15.225-.386.38-.652.428-.266.049-.54-.013-.761-.17L9.713 8.881l-1.135 2.27-.894-.448c-.31-.146-.64-.239-.981-.274l1.744-3.49c.13-.262.37-.453.654-.523.284-.07.584-.013.822.157l6.16 4.4L22.065 2z"/>
</svg>
