<svg xmlns="http://www.w3.org/2000/svg" width="24" height="24" viewBox="0 0 24 24" style="background:#fff">
    <g fill="none" fill-rule="evenodd">
        <path fill="#FFF" d="M0 0H24V24H0z"/>
        <path fill="#95A1AC" d="M10.878 2.295c5.999-.579 11.034 4.455 10.45 10.455h-9.14l-5.125 5.116C8.412 18.921 10.06 19.5 11.8 19.5l.308-.006c1.94-.076 3.754-.867 5.135-2.246.858-.856 1.481-1.873 1.854-2.998h1.964c-.425 1.5-1.272 3.108-2.49 4.324-1.809 1.806-4.213 2.801-6.77 2.801-2.559 0-4.953-.997-6.762-2.803C-.154 13.39 2.251 4.437 9.374 2.564v1.96C4.126 6.212 2.497 12.39 5.755 16.538l5.123-5.115zm1.87 1.892v6.688h6.686c-.425-3.375-3.311-6.264-6.685-6.688z"/>
    </g>
</svg>
