<svg xmlns="http://www.w3.org/2000/svg" width="24" height="24" viewBox="0 0 24 24">
    <path fill="#95A1AC" fill-rule="evenodd" d="M14.923 0l.462 3.644.054.02c.773.313 1.5.729 2.158 1.236l.042.033 3.438-1.43L24 8.497l-2.972 2.218.02.123c.035.257.058.515.07.775l.009.39c-.001.389-.027.777-.079 1.161l-.02.122L24 15.504l-2.923 4.992-3.438-1.43-.042.034c-.659.507-1.385.923-2.158 1.235l-.054.02L14.923 24H9.077l-.463-3.645-.053-.02c-.773-.312-1.5-.728-2.158-1.235l-.043-.034-3.437 1.43L0 15.504l2.97-2.219-.02-.123c-.102-.771-.102-1.553 0-2.324l.02-.124L0 8.496l2.923-4.992L6.36 4.933l.043-.033c.659-.507 1.385-.923 2.158-1.235l.053-.021L9.077 0h5.846zm-1.79 2h-2.267l-.396 3.133-.617.194c-.975.308-1.871.822-2.627 1.504l-.48.434-2.961-1.233L2.65 7.967l2.558 1.91-.141.627c-.222.985-.222 2.007 0 2.992l.141.627-2.558 1.909 1.134 1.935 2.962-1.232.48.434c.755.682 1.65 1.196 2.626 1.504l.617.194.397 3.133h2.265l.398-3.133.617-.194c.975-.308 1.871-.822 2.627-1.504l.48-.434 2.96 1.232 1.134-1.935-2.556-1.908.14-.626c.11-.493.166-.996.167-1.496-.001-.504-.057-1.007-.167-1.5l-.14-.626 2.556-1.909-1.134-1.935-2.96 1.233-.48-.434c-.756-.682-1.652-1.196-2.627-1.504l-.617-.194L13.133 2zM12 8c2.24 0 4.056 1.79 4.056 4S14.24 16 12 16s-4.056-1.79-4.056-4S9.76 8 12 8zm0 2c-1.12 0-2.028.895-2.028 2s.908 2 2.028 2 2.028-.895 2.028-2-.908-2-2.028-2z"/>
</svg>
