<svg xmlns="http://www.w3.org/2000/svg" xmlns:xlink="http://www.w3.org/1999/xlink" width="24" height="24" viewBox="0 0 24 24" style="background:#fff">
    <defs>
        <path id="prefix__a" d="M15 11.063c0 1.757-1.43 3.187-3.188 3.187-1.43 0-2.645-.949-3.046-2.25H6.841c.44 2.345 2.5 4.125 4.971 4.125 2.792 0 5.063-2.271 5.063-5.063V8.626h-8.25V5.606c.06.012 0-1.463.46-1.81.423-.7 1.104-1.222 1.911-1.436.816-.2.816-.2 1.633 0 .807.214 1.488.737 1.91 1.435.461.734.4 1.823.461 1.811v1.519h1.875V5.437c0-2.79-2.271-5.062-5.063-5.062-2.79 0-5.062 2.271-5.062 5.063V10.5H15v.563zm5.25-.563h-1.875c0 4.622-3.203 7.125-6.563 7.125-3.326 0-6.562-2.463-6.562-7.125H3.375c0 5.299 3.504 8.503 7.5 8.947V24h1.875v-4.553c3.927-.437 7.5-3.575 7.5-8.947z"/>
    </defs>
    <g fill="none" fill-rule="evenodd">
        <path fill="#FFF" d="M0 0H24V24H0z"/>
        <use fill="#95A1AC" xlink:href="#prefix__a"/>
    </g>
</svg>
