<svg xmlns="http://www.w3.org/2000/svg" width="24" height="24" viewBox="0 0 24 24">
    <path fill="#95A1AC" fill-rule="evenodd" d="M20 1c1.657 0 3 1.343 3 3v16c0 1.657-1.343 3-3 3H4c-1.657 0-3-1.343-3-3V4c0-1.657 1.343-3 3-3zm0 2H4c-.552 0-1 .448-1 1v16c0 .552.448 1 1 1h16c.552 0 1-.448 1-1V4c0-.552-.448-1-1-1zm-8 1l.297.004c2.018.064 3.94.894 5.373 2.326 1.504 1.505 2.343 3.549 2.33 5.676l-.006.994H4.006L4 12.006c-.013-2.127.826-4.171 2.33-5.676C7.835 4.826 9.88 3.987 12 4zm.006 2h-.012c-1.593-.01-3.123.618-4.25 1.745-.86.86-1.43 1.958-1.647 3.14l-.018.114h5.14l.81-3.242 1.941.486-.689 2.756h4.639l-.017-.115c-.2-1.09-.7-2.109-1.454-2.937l-.194-.202C15.13 6.618 13.6 5.99 12.006 6z"/>
</svg>
