<svg xmlns="http://www.w3.org/2000/svg" width="24" height="24" viewBox="0 0 24 24">
    <path fill="#95A1AC" fill-rule="evenodd" d="M19.636 2.182c.402 0 .728.325.728.727V16c0 .402-.326.727-.728.727h-3.854l3.035 5.466c.136.228.137.511.003.74-.134.228-.382.366-.647.359-.265-.008-.505-.158-.627-.394l-3.428-6.17H7.273v-1.455h11.636V3.636H7.273V2.182zm-5.818 3.636v1.818l-8 .364v15.273H4L3.636 16H2.182l-.364 7.273H0V7.636c0-1.004.814-1.818 1.818-1.818h12zM3.273 0c1.406 0 2.545 1.14 2.545 2.545 0 1.406-1.14 2.546-2.545 2.546C1.867 5.09.727 3.95.727 2.545.727 1.14 1.867 0 3.273 0z"/>
</svg>
