<svg xmlns="http://www.w3.org/2000/svg" width="24" height="24" viewBox="0 0 24 24">
    <path fill="#95A1AC" fill-rule="evenodd" d="M16.167 7.167C19.387 7.17 21.997 9.78 22 13c0 3.012-4.7 7.944-5.235 8.5-.157.162-.373.253-.598.253-.226 0-.442-.091-.599-.253-.535-.556-5.235-5.488-5.235-8.5.004-3.22 2.614-5.83 5.834-5.833zm-10 6.666c.46 0 .833.373.833.834.003 2.3 1.867 4.164 4.167 4.166.46 0 .833.373.833.834 0 .46-.373.833-.833.833-3.22-.004-5.83-2.613-5.834-5.833 0-.46.373-.834.834-.834zm10-3.333c-1.381 0-2.5 1.12-2.5 2.5s1.119 2.5 2.5 2.5c.663 0 1.299-.263 1.767-.732.47-.47.733-1.105.733-1.768 0-1.38-1.12-2.5-2.5-2.5zm-10-7.5c2.3.003 4.164 1.867 4.166 4.167 0 2.093-2.993 5.036-3.593 5.605-.321.304-.825.304-1.147 0C4.993 12.202 2 9.26 2 7.167 2.003 4.867 3.867 3.003 6.167 3zm0 2.5c-.92 0-1.667.746-1.667 1.667 0 .92.746 1.666 1.667 1.666.442 0 .866-.175 1.178-.488.313-.312.488-.736.488-1.178 0-.92-.746-1.667-1.666-1.667z"/>
</svg>
