<svg xmlns="http://www.w3.org/2000/svg" xmlns:xlink="http://www.w3.org/1999/xlink" width="24" height="24" viewBox="0 0 24 24">
    <defs>
        <path id="prefix__a" d="M12 0C5.373 0 0 5.373 0 12s5.373 12 12 12 12-5.373 12-12S18.627 0 12 0zm0 2.323c5.348 0 9.677 4.328 9.677 9.677 0 1.668-.42 3.238-1.163 4.607-.648-1.277-1.816-2.3-3.26-2.737.658-1.008 1.012-2.186 1.012-3.418 0-3.463-2.802-6.267-6.266-6.267-3.463 0-6.266 2.803-6.266 6.267 0 1.232.354 2.41 1.012 3.418-1.443.436-2.61 1.458-3.26 2.737-.742-1.37-1.163-2.939-1.163-4.607 0-5.348 4.328-9.677 9.677-9.677zm-3.871 8.129C8.129 8.314 9.862 6.58 12 6.58s3.871 1.733 3.871 3.87c0 2.138-1.733 3.872-3.871 3.872s-3.871-1.734-3.871-3.871zm-2.9 8.465c.074-1.645 1.43-2.957 3.094-2.957h.685c1.855 1.011 4.13 1.01 5.984 0h.685c1.664 0 3.02 1.312 3.094 2.957-3.762 3.683-9.782 3.68-13.542 0z"/>
    </defs>
    <g fill="none" fill-rule="evenodd">
        <use fill="#95A1AC" xlink:href="#prefix__a"/>
    </g>
</svg>
