<svg xmlns="http://www.w3.org/2000/svg" width="24" height="24" viewBox="0 0 24 24">
    <g fill="none" fill-rule="evenodd">
        <g fill="#95A1AC">
            <path d="M21.422 10.799c.663 0 1.201.538 1.201 1.201v2.403c-.004 3.315-2.69 6.002-6.006 6.006H5.1l1.553 1.553c.453.466.453 1.207 0 1.673-.461.476-1.222.488-1.698.026l-3.604-3.604c-.456-.474-.456-1.224 0-1.699l3.604-3.603c.466-.453 1.207-.453 1.673 0 .476.461.488 1.222.026 1.698L5.1 18.006h11.516c1.99-.002 3.601-1.614 3.604-3.603V12c0-.663.537-1.201 1.2-1.201zM16.969.365c.462-.476 1.222-.488 1.698-.026l3.604 3.604c.468.47.468 1.23 0 1.699l-3.604 3.603c-.465.45-1.203.45-1.669 0-.477-.46-.49-1.22-.03-1.698l1.554-1.553H7.006c-1.99.002-3.601 1.614-3.603 3.603V12c0 .663-.538 1.201-1.202 1.201C1.538 13.201 1 12.663 1 12V9.597c.004-3.315 2.69-6.002 6.006-6.006h11.516l-1.553-1.553c-.452-.466-.452-1.207 0-1.673z"/>
        </g>
    </g>
</svg>
