<svg xmlns="http://www.w3.org/2000/svg" width="24" height="24" viewBox="0 0 24 24" style="background:#fff">
    <g fill="none" fill-rule="evenodd">
        <path fill="#FFF" d="M0 0H24V24H0z"/>
        <path fill="#95A1AC" d="M14.625 15.375V22.5H9v-7.125h5.625zM7.5 12v10.5H1.875V12H7.5zm14.25-1.875V22.5h-5.625V10.125h5.625zm-9 7.125h-1.875v3.375h1.875V17.25zm-7.125-3.375H3.75v6.75h1.875v-6.75zM19.875 12H18v8.625h1.875V12zm-.374-10.5c1.242 0 2.25 1.008 2.25 2.25C21.75 4.993 20.743 6 19.5 6c-.204 0-.4-.03-.587-.08l-5.071 4.588c.23 1.401-.855 2.617-2.218 2.617-1.201 0-2.18-.943-2.244-2.128L5.396 8.606c-.362.248-.8.394-1.27.394-1.244 0-2.251-1.007-2.251-2.25S2.882 4.5 4.125 4.5c1.327 0 2.384 1.15 2.236 2.498l3.728 2.237c.725-.68 1.813-.813 2.687-.29l4.688-4.242c-.135-.29-.214-.612-.214-.953 0-1.243 1.008-2.25 2.25-2.25z"/>
    </g>
</svg>
