<svg xmlns="http://www.w3.org/2000/svg" width="24" height="25" viewBox="0 0 24 25">
    <g fill="none" fill-rule="evenodd">
        <g fill="#95A1AC">
            <g>
                <g>
                    <g>
                        <path d="M22.622 3.4c.659 0 1.22.469 1.35 1.11l.021.13.007.137v14.446c0 .659-.47 1.22-1.111 1.35l-.13.02-.137.008H1.378c-.659 0-1.22-.47-1.35-1.111l-.021-.13L0 19.222V4.777c0-.659.47-1.22 1.111-1.35l.13-.02.137-.008h21.244zm.038 7.286H1.34v8.537l.007.028-.004.004.035.006h21.244l.028-.007.005.004.005-.035v-8.537zm-3.874 2.344c1.465 0 2.653 1.188 2.653 2.652 0 1.465-1.188 2.653-2.653 2.653-.509 0-.996-.145-1.412-.407l-.174-.12-.113-.091-.113.091c-.352.263-.764.436-1.204.5l-.19.02-.193.007c-1.465 0-2.652-1.188-2.652-2.653s1.187-2.652 2.652-2.652c.51 0 .996.144 1.413.407l.174.12.113.09.113-.09c.351-.264.764-.436 1.203-.5l.19-.02.193-.007zm0 .85c-.48 0-.932.187-1.272.526-.115.114-.268.176-.427.176-.16 0-.312-.062-.427-.176-.34-.34-.793-.527-1.273-.527-.994 0-1.803.809-1.803 1.803 0 .995.809 1.803 1.803 1.803.48 0 .933-.187 1.273-.526.115-.115.268-.176.427-.176.159 0 .312.061.427.176.34.339.792.526 1.272.526.995 0 1.803-.808 1.803-1.803 0-.994-.808-1.803-1.803-1.803zm-13.04 2.254c.37 0 .67.3.67.67 0 .292-.19.545-.474.637l-.098.024-.099.008H2.63c-.37 0-.67-.3-.67-.67 0-.292.19-.545.474-.637l.098-.024.098-.008h3.116zm3.681-1.96c.37 0 .67.3.67.67 0 .293-.189.546-.473.638l-.099.024-.098.008H2.63c-.37 0-.67-.3-.67-.67 0-.292.19-.545.474-.637l.098-.025.098-.007h6.798zM22.66 7.288H1.34v2.06h21.32v-2.06zm-.038-2.548H1.378c-.01 0-.022.006-.028.007l-.005-.004-.005.035v1.171h21.32V4.777c0-.012-.009-.025-.02-.032l-.018-.006z" transform="translate(-28 -373) translate(0 13) translate(0 337) translate(28 23.467)"/>
                    </g>
                </g>
            </g>
        </g>
    </g>
</svg>
