<svg xmlns="http://www.w3.org/2000/svg" width="24" height="24" viewBox="0 0 24 24">
    <path fill="#95A1AC" fill-rule="evenodd" d="M16.714 16.667c1.558 0 2.85 1.132 3.1 2.619H23v1.047h-3.186c-.25 1.487-1.542 2.62-3.1 2.62-1.735 0-3.143-1.408-3.143-3.143 0-1.736 1.408-3.143 3.143-3.143zm0 1.047c-1.157 0-2.095.938-2.095 2.096 0 1.157.938 2.095 2.095 2.095 1.157 0 2.096-.938 2.096-2.095 0-1.158-.939-2.096-2.096-2.096zm-5.238 1.572v1.047H1v-1.047h10.476zm-4.19-9.953c1.735 0 3.143 1.407 3.143 3.143 0 1.736-1.408 3.143-3.143 3.143-1.558 0-2.85-1.132-3.1-2.619H1v-1.048h3.186c.25-1.486 1.542-2.619 3.1-2.619zm0 1.048c-1.157 0-2.096.938-2.096 2.095 0 1.157.939 2.095 2.096 2.095s2.095-.938 2.095-2.095c0-1.157-.938-2.095-2.095-2.095zM23 11.952V13H12.524v-1.048H23zM16.714 2c1.558 0 2.85 1.133 3.1 2.62L23 4.619v1.048h-3.186c-.25 1.486-1.542 2.619-3.1 2.619-1.735 0-3.143-1.407-3.143-3.143C13.571 3.407 14.98 2 16.714 2zm0 1.048c-1.157 0-2.095.938-2.095 2.095 0 1.157.938 2.095 2.095 2.095 1.157 0 2.096-.938 2.096-2.095 0-1.157-.939-2.095-2.096-2.095zm-5.238 1.571v1.048H1V4.619h10.476z"/>
</svg>
