<svg xmlns="http://www.w3.org/2000/svg" width="24" height="24" viewBox="0 0 24 24">
    <path fill="#95A1AC" fill-rule="evenodd" d="M9 9.5c.552 0 1 .448 1 1 0 .513-.386.936-.883.993L9 11.5H5v10h14v-10h-4c-.513 0-.936-.386-.993-.883L14 10.5c0-.513.386-.936.883-.993L15 9.5h4c1.011 0 1.91.68 1.994 1.652L21 11.3v10.4c0 1-.851 1.728-1.85 1.795L19 23.5H5c-1.011 0-1.91-.68-1.994-1.652L3 21.7V11.3c0-1 .851-1.728 1.85-1.795L5 9.5h4zm3-9.001h.02c.023 0 .046.002.07.004L12 .499c.05 0 .1.004.149.011l.052.01c.022.004.043.009.065.015l.046.014.06.021.051.023.061.03.037.022c.025.016.05.032.074.05l.018.014c.007.005.01.007.012.01l.082.073 4.5 4.5c.39.39.39 1.024 0 1.414-.36.36-.928.388-1.32.083l-.094-.083L13 3.913v10.586c0 .552-.448 1-1 1-.513 0-.936-.386-.993-.883L11 14.499V3.913L8.207 6.706c-.36.36-.928.388-1.32.083l-.094-.083c-.36-.36-.388-.928-.083-1.32l.083-.094 4.5-4.5.082-.073.008-.007-.09.08c.035-.036.073-.068.112-.097.024-.018.049-.034.074-.05l.037-.021c.02-.011.04-.022.06-.031L11.63.57l.06-.021.045-.014.065-.016.053-.009.058-.007.072-.004H12z"/>
</svg>
