<svg xmlns="http://www.w3.org/2000/svg" width="24" height="24" viewBox="0 0 24 24">
    <path fill="#95A1AC" fill-rule="evenodd" d="M7 9.5c.552 0 1 .448 1 1 0 .513-.386.936-.883.993L7 11.5H5v10h14v-10h-2c-.513 0-.936-.386-.993-.883L16 10.5c0-.513.386-.936.883-.993L17 9.5h2c1.011 0 1.91.68 1.994 1.652L21 11.3v10.4c0 1-.851 1.728-1.85 1.795L19 23.5H5c-1.011 0-1.91-.68-1.994-1.652L3 21.7V11.3c0-1 .851-1.728 1.85-1.795L5 9.5h2zm8.065-3.743c.321-.32.774-.34 1.112-.06l.066.06c.342.343.342.835 0 1.178L13.178 10l3.065 3.065c.32.321.34.774.06 1.112l-.06.066c-.343.342-.835.342-1.178 0L12 11.177l-3.065 3.066c-.321.32-.774.34-1.112.06l-.066-.06c-.342-.343-.342-.835 0-1.178L10.822 10 7.757 6.935c-.32-.321-.34-.774-.06-1.112l.06-.066c.343-.342.835-.342 1.178 0L12 8.822z"/>
</svg>
