<svg xmlns="http://www.w3.org/2000/svg" width="24" height="24" viewBox="0 0 24 24">
    <g fill="none" fill-rule="evenodd">
        <g fill="#FE5444">
            <path d="M15.797 2c.22 0 .433.088.589.244l5.37 5.37c.156.156.244.368.244.59v7.593c0 .22-.088.433-.244.589l-5.37 5.37c-.156.156-.368.244-.59.244H8.204c-.22 0-.433-.088-.589-.244l-5.37-5.37c-.156-.156-.244-.368-.244-.59V8.204c0-.22.088-.433.244-.589l5.37-5.37c.156-.156.368-.244.59-.244zm-.346 1.667H8.548L3.667 8.548v6.903l4.882 4.882h6.901l4.883-4.883v-6.9l-4.882-4.883zM12 15.333c.46 0 .833.373.833.834 0 .46-.373.833-.833.833-.46 0-.833-.373-.833-.833 0-.46.373-.834.833-.834zM12 7c.427 0 .78.322.828.736l.005.097v5c0 .46-.373.834-.833.834-.427 0-.78-.322-.828-.736l-.005-.098v-5c0-.46.373-.833.833-.833z"/>
        </g>
    </g>
</svg>
