<svg xmlns="http://www.w3.org/2000/svg" width="24" height="24" viewBox="0 0 24 24">
    <path fill="#95A1AC" fill-rule="evenodd" d="M10.293 23.12c-1.172 1.172-3.07 1.172-4.242 0L.879 17.95c-1.172-1.172-1.172-3.07 0-4.242L13.707.879c1.171-1.172 3.07-1.172 4.242 0L23.12 6.05c1.171 1.171 1.171 3.07 0 4.242zm-6.294-9.707l-1.706 1.708c-.39.39-.39 1.023 0 1.414l5.172 5.172c.39.39 1.023.39 1.414 0l1.706-1.708-6.586-6.586zm8-8l-6.586 6.586 6.586 6.586 6.586-6.586-6.586-6.586zm0 8.587c.553 0 1 .447 1 1 0 .552-.447 1-1 1-.552 0-1-.448-1-1 0-.553.448-1 1-1zm3-3c.553 0 1 .447 1 1 0 .552-.447 1-1 1-.552 0-1-.448-1-1 0-.553.448-1 1-1zm-6 0c.553 0 1 .447 1 1 0 .552-.447 1-1 1-.552 0-1-.448-1-1 0-.553.448-1 1-1zm7.536-8.707c-.39-.39-1.024-.39-1.414 0l-1.708 1.706 6.586 6.586 1.708-1.706c.36-.36.388-.928.083-1.32l-.083-.094zM12 8c.552 0 1 .447 1 1 0 .552-.448 1-1 1-.553 0-1-.448-1-1 0-.553.447-1 1-1z"/>
</svg>
