<svg xmlns="http://www.w3.org/2000/svg" width="24" height="24" viewBox="0 0 24 24">
    <path fill="#95A1AC" fill-rule="evenodd" d="M15 0c2.21 0 4 1.79 4 4v7.252l.156.111c2.226 1.64 3.292 4.462 2.669 7.19l-.064.255c-.82 3.06-3.593 5.188-6.761 5.188s-5.941-2.128-6.761-5.188c-.752-2.805.31-5.753 2.605-7.445l.155-.111L11 4C11 1.858 12.684.109 14.8.005zm0 2c-1.105 0-2 .895-2 2v8.377l-.5.289c-1.96 1.132-2.915 3.438-2.33 5.624.586 2.186 2.567 3.706 4.83 3.706s4.244-1.52 4.83-3.706c.585-2.186-.37-4.492-2.33-5.624l-.5-.289V4c0-1.105-.895-2-2-2zm4 14v1c0 2.21-1.79 4-4 4s-4-1.79-4-4v-1h8zM6 12v2H2v-2h4zm2-5v2H2V7h6zm0-5v2H2V2h6z"/>
</svg>
