<svg xmlns="http://www.w3.org/2000/svg" xmlns:xlink="http://www.w3.org/1999/xlink" width="24" height="24" viewBox="0 0 24 24" style="background:#fff">
    <defs>
        <path id="prefix__a" d="M12 6.75c-1.704 0-3 1.125-3 3h1.875c0-.75.375-1.5 1.125-1.5s1.2.466 1.108 1.21c-.136 1.108-2.233 1.466-2.233 3.426v.614h1.875v-.375c0-1.347 2.25-1.807 2.25-3.75 0-1.5-1.278-2.625-3-2.625zm-1.125 9.75h1.875v-1.875h-1.875V16.5zm.938-14.25c-2.555 0-4.956.995-6.762 2.8C3.244 6.858 2.25 9.259 2.25 11.814c0 5.272 4.29 9.562 9.563 9.562h.001c2.554 0 4.955-.995 6.761-2.8 1.806-1.807 2.8-4.208 2.8-6.762 0-5.273-4.29-9.563-9.563-9.563zM17.3 17.3c-1.466 1.466-3.414 2.273-5.487 2.273h-.002c-4.279 0-7.76-3.481-7.76-7.76 0-2.073.807-4.022 2.272-5.488 1.467-1.466 3.416-2.273 5.489-2.273 4.279 0 7.76 3.481 7.76 7.76 0 2.073-.807 4.022-2.272 5.488z"/>
    </defs>
    <g fill="none" fill-rule="evenodd">
        <path fill="#FFF" d="M0 0H24V24H0z"/>
        <use fill="#95A1AC" xlink:href="#prefix__a"/>
    </g>
</svg>
