<svg xmlns="http://www.w3.org/2000/svg" width="24" height="24" viewBox="0 0 24 24">
    <path fill="#95A1AC" fill-rule="evenodd" d="M18.798 12.8l1.602 1.198-.6.801c-1.938 2.591-4.083 5.02-6.413 7.265l-.705.667-.682.636-.682-.636c-2.367-2.206-4.551-4.6-6.53-7.16l-.589-.772L3.6 14 5.202 12.8l.599.8c1.686 2.255 3.535 4.383 5.53 6.367l.669.656.67-.656c1.773-1.764 3.43-3.64 4.961-5.62l.568-.746.6-.8zM10 6.197l4 5.999L15.465 10H24v2h-7.465L14 15.803l-4-6L8.535 12H0v-2h7.464L10 6.197zM16.546 1c3.474.002 6.31 2.748 6.449 6.193l.005.23.005 1-2 .011-.005-1C20.987 4.982 18.996 3.001 16.552 3c-1.416.01-2.741.682-3.586 1.809L12.83 5 12 6.237 11.17 5c-.834-1.24-2.227-1.99-3.714-2-2.38.001-4.325 1.868-4.45 4.22L3 7.433l-.005 1-2-.01.005-1C1.019 3.872 3.903 1.002 7.462 1c1.607.011 3.132.614 4.302 1.66l.236.223.02-.02c1.133-1.11 2.643-1.778 4.256-1.856l.27-.007z"/>
</svg>
