<svg xmlns="http://www.w3.org/2000/svg" width="24" height="24" viewBox="0 0 24 24">
    <path fill="#95A1AC" fill-rule="evenodd" d="M21 9.584v1.42c-.003 1.547-.725 2.992-1.929 3.925l-.072.053.001.34 3.742 1.5c.709.282 1.19.942 1.251 1.693l.007.163V24h-6v-2h4v-3.322l-3.742-1.5c-.707-.283-1.188-.94-1.251-1.693L17 15.324v-1.457l.502-.288c.867-.498 1.423-1.393 1.491-2.38l.007-.198V10c.711 0 1.388-.149 2-.416zM8 5c2.689 0 4.882 2.122 4.995 4.783l.005.217v2.002c-.003 1.462-.647 2.832-1.733 3.766l-.196.16-.072.053.001.34 3.742 1.5c.709.282 1.19.942 1.251 1.693l.007.163V24H0v-4.326c.002-.762.436-1.45 1.11-1.785l.147-.066L5 16.324v-.342l-.071-.053c-1.076-.834-1.767-2.078-1.904-3.44l-.02-.256L3 12v-2c0-2.762 2.239-5 5-5zm0 2C6.402 7 5.096 8.25 5.005 9.825L5 10v1.998c.002.999.504 1.926 1.329 2.475l.169.105.502.288v1.458c0 .763-.434 1.454-1.109 1.789l-.148.066L2 19.68V22h12V19.68l-3.742-1.5c-.707-.283-1.188-.94-1.251-1.693L9 16.324v-1.457l.502-.288c.867-.498 1.423-1.393 1.491-2.38l.007-.198v-2c0-1.657-1.343-3-3-3zM19 1c.323 0 .555.232.555.555v2.89h2.89c.303 0 .526.204.552.496L23 5c0 .323-.232.555-.555.555h-2.89v2.89c0 .303-.204.526-.496.552L19 9c-.323 0-.555-.232-.555-.555v-2.89h-2.89c-.303 0-.526-.204-.552-.496L15 5c0-.323.232-.555.555-.555h2.89v-2.89c0-.303.204-.526.496-.552zm-4.964 3.402C14.012 4.598 14 4.798 14 5c0 .54.086 1.062.245 1.55l-.611.352-1-1.732.866-.5c.174-.1.353-.19.536-.268z"/>
</svg>
