<?xml version="1.0" encoding="utf-8"?>
<!-- Generator: Adobe Illustrator 16.0.0, SVG Export Plug-In . SVG Version: 6.00 Build 0)  -->
<!DOCTYPE svg PUBLIC "-//W3C//DTD SVG 1.1//EN" "http://www.w3.org/Graphics/SVG/1.1/DTD/svg11.dtd">
<svg version="1.1" xmlns="http://www.w3.org/2000/svg" xmlns:xlink="http://www.w3.org/1999/xlink" x="0px" y="0px"
	 width="155.374px" height="50px" viewBox="0 0 155.374 50" enable-background="new 0 0 155.374 50" xml:space="preserve">
<g id="Layer_2">
	<rect x="-0.666" y="-0.25" fill="#212529" width="156.291" height="50.746"/>
</g>
<g id="Layer_1">
	<title>logo /normal_beta@2x</title>
	<g id="logo-_x2F_normal_x5F_beta">
		<g id="logo_new" transform="translate(0.000000, 5.000000)">
			<path id="Combined-Shape" fill="#FFFFFF" d="M141.004-0.401c2.694,0.024,5.144,0.715,7.348,2.075
				c2.109,1.335,3.749,3.128,4.921,5.378h-3.058c-2.25-3.28-5.391-4.897-9.422-4.851c-3,0-5.584,1.084-7.752,3.251
				c-2.169,2.168-3.287,4.775-3.357,7.821c-0.071,3.164,1.013,5.9,3.252,8.208c2.238,2.308,4.928,3.463,8.068,3.463
				c1.828,0,3.609-0.479,5.343-1.432c1.665-0.906,2.965-2.06,3.903-3.455h3.022c-1.242,2.344-2.924,4.165-5.044,5.465
				c-2.122,1.301-4.53,1.976-7.225,2.022c-3.82,0.047-7.096-1.324-9.827-4.113c-2.729-2.789-4.096-6.116-4.096-9.983
				c0-3.983,1.372-7.299,4.114-9.948C133.866,0.877,137.137-0.424,141.004-0.401z M72.624-0.049L84.12,27.018h-3.018l-3.844-9.14
				H64.726l-3.792,9.14h-3.427L69.601-0.049H72.624z M105.145-0.014c2.999,0,5.39,0.826,7.172,2.478
				c1.78,1.652,2.647,3.768,2.601,6.345c-0.047,2.109-0.762,3.932-2.146,5.466c-1.385,1.535-3.097,2.397-5.138,2.584l-0.773,0.076
				l7.49,10.083h-3.334l-9.142-12.233h2.638c2.366,0,4.241-0.609,5.624-1.828c1.384-1.218,2.028-2.753,1.935-4.605
				c-0.07-1.688-0.681-3.058-1.829-4.112c-1.242-1.148-2.883-1.723-4.921-1.723h-6.047v24.501h-2.779V-0.014H105.145z M71.166,3.083
				l-5.257,12.37h10.396L71.166,3.083z"/>
			<path id="Beta" fill="#FFFFFF" d="M61.259,42.403c2.006,0,2.864-1.346,2.864-2.6c0-1.029-0.567-2.058-1.729-2.256
				c0.989-0.304,1.253-1.214,1.253-1.887c0-1.372-1.042-2.348-2.666-2.348H57.38v9.09H61.259z M60.876,36.928h-1.663v-1.992h1.663
				c0.646,0,0.937,0.435,0.937,0.99C61.813,36.545,61.457,36.928,60.876,36.928z M60.995,40.78h-1.782v-2.322h1.808
				c0.871,0,1.254,0.594,1.254,1.162C62.275,40.227,61.853,40.78,60.995,40.78z M68.464,42.523c1.082,0,2.164-0.423,2.744-1.202
				l-1.016-1.016c-0.369,0.436-0.99,0.687-1.61,0.687c-0.831,0-1.411-0.396-1.597-1.108h4.646c0.013-0.277,0.026-0.488,0.026-0.659
				c0-1.888-1.438-3.128-3.193-3.128c-1.769,0-3.272,1.24-3.272,3.233C65.191,41.229,66.577,42.523,68.464,42.523z M69.929,38.763
				h-2.943c0.186-0.832,0.806-1.162,1.505-1.162C69.269,37.601,69.876,38.036,69.929,38.763z M75.313,42.403v-4.815h1.306v-1.333
				h-1.306v-2.257h-1.729v2.257h-1.121v1.333h1.121v4.815H75.313z M80.392,42.523c0.687,0,1.544-0.278,1.979-0.885v0.765h1.729
				v-6.148h-1.729v0.739c-0.436-0.621-1.268-0.885-1.979-0.885c-1.584,0-3.021,1.228-3.021,3.206
				C77.37,41.295,78.808,42.523,80.392,42.523z M80.722,40.913c-0.871,0-1.597-0.7-1.597-1.598c0-0.91,0.726-1.582,1.597-1.582
				c0.805,0,1.597,0.634,1.597,1.582C82.318,40.253,81.566,40.913,80.722,40.913z"/>
			<path id="Fill-7" fill="#FFFFFF" d="M38.661,25.189c-1.791-0.002-3.063-1.174-4.553-2.058c-1.49-0.885-3.133-1.509-4.834-1.84
				c-3.56-0.694-7.3-0.066-10.441,1.747c-3.178,1.836-5.609,4.804-6.773,8.285c-0.573,1.715-0.853,3.549-0.774,5.358
				c0.1,2.293,0.219,4.479-1.748,6.064c-1.669,1.346-4.058,1.531-5.914,0.459c-2.507-1.447-3.363-4.652-1.916-7.159
				c0.925-1.603,2.463-2.057,3.983-2.87c1.564-0.837,2.972-2.017,4.128-3.357c2.355-2.729,3.666-6.261,3.666-9.866
				c0-3.499-1.228-6.834-3.521-9.48c-1.117-1.289-2.439-2.39-3.864-3.322c-1.575-1.03-3.407-1.58-4.397-3.293
				C0.257,1.356,1.113-1.854,3.62-3.296c2.508-1.448,5.712-0.59,7.162,1.915c0.859,1.485,0.563,3.196,0.506,4.863
				c-0.058,1.717,0.213,3.438,0.755,5.068c1.161,3.492,3.599,6.476,6.787,8.315c2.991,1.727,6.492,2.349,9.894,1.756
				c1.729-0.3,3.399-0.896,4.949-1.716c1.666-0.881,2.988-2.196,4.989-2.195c2.891,0.001,5.239,2.348,5.237,5.242
				C43.902,22.843,41.555,25.191,38.661,25.189"/>
		</g>
	</g>
</g>
</svg>
