<?xml version="1.0" encoding="utf-8"?>
<!-- Generator: Adobe Illustrator 16.0.0, SVG Export Plug-In . SVG Version: 6.00 Build 0)  -->
<!DOCTYPE svg PUBLIC "-//W3C//DTD SVG 1.1//EN" "http://www.w3.org/Graphics/SVG/1.1/DTD/svg11.dtd">
<svg version="1.1" id="Layer_1" xmlns="http://www.w3.org/2000/svg" xmlns:xlink="http://www.w3.org/1999/xlink" x="0px" y="0px"
	 width="623px" height="700px" viewBox="0 0 623 700" enable-background="new 0 0 623 700" xml:space="preserve">
<path id="Fill-7" fill="#FFFFFF" d="M543.869,424.87c-25.672-0.017-43.918-16.833-65.289-29.501
	c-21.371-12.684-44.926-21.64-69.32-26.394c-51.074-9.947-104.701-0.941-149.751,25.066
	c-45.581,26.327-80.451,68.882-97.143,118.814c-8.222,24.595-12.23,50.904-11.104,76.846c1.436,32.896,3.133,64.244-25.067,86.978
	c-23.939,19.305-58.196,21.957-84.817,6.585C5.423,662.516-6.849,616.551,13.9,580.596c13.264-22.983,35.332-29.501,57.13-41.161
	c22.429-12.013,42.624-28.932,59.204-48.15c33.78-39.145,52.572-89.799,52.579-141.497c0-50.18-17.607-98.014-50.484-135.958
	c-16.02-18.479-34.979-34.273-55.418-47.647c-22.58-14.776-48.864-22.655-63.069-47.225C-6.9,83.063,5.382,37.037,41.335,16.338
	c35.979-20.757,81.927-8.458,102.719,27.46c12.324,21.303,8.074,45.832,7.257,69.748c-0.832,24.629,3.059,49.31,10.83,72.679
	c16.657,50.084,51.62,92.883,97.334,119.259c42.899,24.765,93.1,33.685,141.889,25.185c24.799-4.309,48.756-12.86,70.982-24.613
	c23.891-12.633,42.861-31.501,71.557-31.485c41.447,0.009,75.131,33.669,75.098,75.175
	C619.049,391.219,585.398,424.903,543.869,424.87"/>
</svg>
