<svg xmlns="http://www.w3.org/2000/svg" width="24" height="25" viewBox="0 0 24 25">
    <path fill="#95A1AC" fill-rule="evenodd" d="M19.66 4.5C20.952 4.5 22 5.548 22 6.84v11.915c0 1.293-1.048 2.34-2.34 2.34H4.34c-1.292 0-2.34-1.047-2.34-2.34V6.84C2 5.548 3.048 4.5 4.34 4.5zm0 1.277H4.34c-.587 0-1.063.476-1.063 1.063v11.915c0 .588.476 1.064 1.063 1.064h15.32c.587 0 1.063-.476 1.063-1.064V6.84c0-.587-.476-1.063-1.063-1.063zM7.745 14.448l.902.903-2.604 2.605-.903-.903 2.605-2.605zm8.51 0l2.605 2.605-.903.903-2.604-2.605.902-.903zm1.702-6.808l.903.903-6.86 6.86-6.86-6.86.903-.903L12 13.597l5.957-5.957z"/>
</svg>
