<svg version="1.1" id="Layer_1" xmlns="https://www.w3.org/2000/svg" x="0px"
    y="0px" width="24px" height="24px" viewBox="0 0 24 24" enableBackground="new 0 0 24 24" >
    <g>
        <path display="none" fill="#FFFFFF" d="M0,0h24v24H0V0z" />
        <g>
            <path id="prefix__a" fill="#FFF" d="M15,11.063c0,1.757-1.43,3.187-3.188,3.187c-1.43,0-2.645-0.949-3.046-2.25H6.841
            c0.44,2.346,2.5,4.125,4.971,4.125c2.792,0,5.063-2.271,5.063-5.063V8.626h-8.25v-3.02c0.06,0.012,0-1.463,0.46-1.81
            c0.423-0.7,1.104-1.222,1.911-1.436c0.816-0.2,0.816-0.2,1.633,0c0.807,0.214,1.488,0.737,1.91,1.435
            C15,4.529,14.939,5.618,15,5.606v1.519h1.875V5.437c0-2.79-2.271-5.062-5.063-5.062c-2.79,0-5.062,2.271-5.062,5.063V10.5H15
            V11.063z M20.25,10.5h-1.875c0,4.622-3.203,7.125-6.563,7.125c-3.326,0-6.562-2.463-6.562-7.125H3.375
            c0,5.299,3.504,8.503,7.5,8.947V24h1.875v-4.553C16.677,19.01,20.25,15.872,20.25,10.5z" />
        </g>
    </g>
</svg>