<svg xmlns="https://www.w3.org/2000/svg" width="24" height="24" viewBox="0 0 24 24">
    <path fill="#95A1AC" fillRule="evenodd"
        d="M20.25 10.5c0 5.267-3.434 8.387-7.27 8.918l-.23.029V24h-1.875v-4.553c-.513-.057-1.018-.16-1.509-.307l1.572-1.572c.29.038.582.057.874.057 3.29 0 6.43-2.4 6.559-6.839l.004-.286h1.875zm.72-7.914L22.386 4 4 22.385 2.586 20.97 20.97 2.586zM5.25 10.5c0 1.806.485 3.281 1.273 4.412L5.18 16.256c-1.054-1.386-1.727-3.192-1.799-5.368l-.006-.388H5.25zm11.59 1.167c-.277 2.31-2.114 4.146-4.423 4.422l4.422-4.422zM8.765 12c.051.165.115.325.191.478L7.59 13.846c-.311-.472-.546-.998-.686-1.561L6.84 12h1.925zM11.812.375c2.516 0 4.609 1.844 4.998 4.251l-1.811 1.809.001-.829c-.057.012-.007-.952-.385-1.678l-.076-.133c-.422-.698-1.103-1.22-1.91-1.435-.817-.2-.817-.2-1.633 0-.807.214-1.488.737-1.91 1.435-.434.327-.406 1.654-.451 1.798l-.01.013v3.019h4.184L10.934 10.5H6.75V5.437c0-2.79 2.271-5.062 5.063-5.062z" />
</svg>