<svg xmlns="http://www.w3.org/2000/svg" width="40" height="50" viewBox="0 0 40 50">
    <defs>
        <filter id="prefix__a">
            <feColorMatrix in="SourceGraphic" values="0 0 0 0 0.584314 0 0 0 0 0.631373 0 0 0 0 0.674510 0 0 0 1.000000 0"/>
        </filter>
    </defs>
    <g fill="none" fill-rule="evenodd" filter="url(#prefix__a)">
        <path fill="#FFF" d="M32.46 5c2.138 0 3.871 1.733 3.871 3.871s-1.733 3.87-3.871 3.87c-.534 0-1.042-.107-1.505-.302l-4.933 7.752c.784.709 1.277 1.733 1.277 2.874 0 1.54-.9 2.87-2.202 3.493l3.064 10.723c.14-.015.283-.023.428-.023 2.138 0 3.871 1.733 3.871 3.871S30.727 45 28.59 45c-2.139 0-3.872-1.733-3.872-3.871 0-1.54.9-2.87 2.202-3.493l-3.063-10.724c-.141.016-.284.023-.43.023-1.511 0-2.821-.867-3.458-2.13l-9.477 2.915c.021.165.033.334.033.506 0 2.138-1.734 3.87-3.871 3.87-2.138 0-3.871-1.732-3.871-3.87s1.733-3.871 3.87-3.871c1.513 0 2.822.867 3.46 2.131l9.476-2.916c-.021-.166-.032-.334-.032-.505 0-2.138 1.733-3.871 3.87-3.871.534 0 1.043.108 1.506.303l4.933-7.753c-.784-.708-1.277-1.733-1.277-2.873C28.59 6.733 30.322 5 32.46 5z"/>
    </g>
</svg>
