<svg xmlns="http://www.w3.org/2000/svg" width="250" height="250" viewBox="0 0 250 250">
    <defs>
        <linearGradient id="d3fho23kta" x1="50.004%" x2="50.004%" y1="100%" y2="0%">
            <stop offset="0%" stop-color="gray" stop-opacity=".25"/>
            <stop offset="54%" stop-color="gray" stop-opacity=".12"/>
            <stop offset="100%" stop-color="gray" stop-opacity=".1"/>
        </linearGradient>
    </defs>
    <g fill="none" fill-rule="evenodd">
        <g>
            <g>
                <g transform="translate(-595 -201) translate(595 201) translate(0 19)">
                    <path fill="#191C20" d="M84.998 8.107C92.983.995 105.51-.455 116.915.112c35.821 1.779 68.16 19.072 96.12 38.632 10.127 7.08 20.094 14.711 26.666 24.462 13.379 19.851 9.41 47.351-9.203 63.704-6.329 5.563-14.003 9.829-21.891 13.61-14.007 6.716-29.12 12.12-45.025 13.657-11.336 1.094-22.81.204-34.08-1.324-31.487-4.27-62.395-13.714-88.308-29.868-11.363-7.087-22.072-15.895-26.754-27.363-4.681-11.468-1.646-25.97 9.956-32.769 4.798-2.806 10.534-4.074 16.151-5.263 8.266-1.742 16.667-3.483 24.13-7.04 7.711-3.677 16.83-10.791 15.306-18.933-1.64-8.731-2.946-16.406 5.015-23.51z"/>
                    <ellipse cx="131.729" cy="193.271" fill="#2A2E32" fill-rule="nonzero" rx="118.246" ry="18.172"/>
                    <path fill="url(#d3fho23kta)" fill-rule="nonzero" d="M195.11 132.463s-1.518-.46-3.535-1.04c-.882-.465-1.852-.738-2.846-.801-2.38-.654-4.826-1.276-6.15-1.47-3.131-.46-8.661-2.207-8.661-2.207-2.12.184-4.33-1.38-4.33-1.38s-2.287-4.14-3.615-5.05c-.052-.04-.108-.074-.167-.102-.187-.109-.362-.236-.522-.38-1.366-4.453-4.349-4.727-4.503-4.742-.577-.654-1.1-1.256-1.492-1.724 1.537-8.313 6.136-17.594 16.706-25.44 0 0 6.279-7.348 2.63-15.85-3.65-8.503-4.672-8.645-10.946-7.06l-14.181 6.773s-4 .95-11.767 1.388c-.646-1.296-1.651-2.368-3.032-2.701-2.91-.702-5.448 2.345-8.241 1.507-2.132-.64-4.707-3.154-6.801-.719-.296.343-.498.764-.776 1.117-.197.241-.428.452-.687.624-4.761-.313-10.047-.835-15.846-1.649l-12.552-7.492s-7.736-3.602-8.027 5.908c-.291 9.51-1.023 13.975 2.333 16.57 2.433 1.877 10.378 14.72 13.353 25.763-.438.627-.709 1.022-.709 1.022s-8.48 11.5-9.124 11.776c-.042.018-.06.08-.057.175-.125.268-.498.783-1.694 1.114-1.66.46-9.03 2.667-10.045 2.667-1.015 0-5.62.276-6.082 2.117.29-.015.583-.009.873.017l-.221.281c-1.26 1.617-3.379 4.63-3.508 6.692-.187 2.942.644 12.05 5.438 11.957 4.793-.092 2.58-13.612 2.58-13.612l.562-1.651.015-.04.388 2.719c.084-.047.166-.095.248-.135.436 1.324 2.015 2.62 6.483 2.71 0 0 6.91.644 12.072 10.945 4.684 9.353 20.231 18.022 31.607 17.957v15.157l-1.565.46-20.316.349c-.702.01-1.275.564-1.308 1.266l-.124 2.617 5.89.554-18.333 4.416s-3.234-.276-2.674 4.323h4.517l.092-.92 36.677-2.575 2.122.528c-.296 1.55-.595 2.813-.672 3.144l-.022.084s0 .06-.03.17c-.217-.075-.338-.125-.338-.125-.498.567-.784 6.485-.829 7.085-.045.6 2.304 1.32 2.304 1.32 1.064.391 5.196 0 5.196 0 1.366-.079 5.03-1.363 5.03-1.363l-.323-6.485c-.16.053-.319.1-.478.145l.03-.284c.032-.38.06-.788.084-1.209l16.403 4.067h.46v.829h5.07s.46-3.495-1.383-4.6c-1.843-1.104-11.52-4.875-11.52-4.875l2.319-.22 9.241-.877v.248h1.38l-.03-.385 2.565-.25 3.04.093s-.092-3.863-2.395-4.14c-.398-.05-1.707-.18-3.592-.37l-.6-7.281c1.47-2.488 5.254 5.057 5.254 5.057s.015.057.037.152c.182.774 1.03 4.229 1.605 4.624h.017c.32.175.653.327.995.455 1.49.552 3.04.924 4.617 1.107 2.95.371 9.4-1.562 10.614-2.206.203-.102.38-.249.518-.428.41-.582-.072-1.211-.072-1.211l-1.296-.132c1.139-.515 1.358-2.428-.769-2.791-.082-.015-.167-.025-.249-.035.11-.189.239-.366.383-.53-1.107.212-4.057-1.127-4.057-1.127-.426-.184-.869-.324-1.323-.418l-.033-.057c-.044-.082-.087-.167-.126-.249-.637-1.335-.879-2.985-1.097-4.228-.46-2.67-5.851-12.97-5.851-12.97s-1.878-4.29-3.483-8.841c1.908-1.63 3.38-3.45 4.23-5.473l1.581-2.433c1.056-1.35 1.992-2.789 2.799-4.3l1.61-2.474c3-.218 7.932-.562 10.467-.644.726 3.938 1.607 8.5 2.005 9.739.746 2.301 4.517-.368 5.99-6.254 1.472-5.885-5.426-11.783-5.426-11.783zm-56.814 48.53v-12.936c.789-.124 1.657-.27 2.59-.438-.558 3.301-1.244 6.321-1.244 6.321.06 1.615-.846 5.207-1.346 7.053zm29.52-4.073l.478.16c.769.27 1.464.718 2.03 1.306-.791-.562-1.63-1.052-2.508-1.466zm-2.933-11.893s1.107 2.117-1.104 5.612c-1.66 2.622-.675 4.16 1.714 5.346-.786-.27-1.589-.489-2.403-.654l.116.067c-1.945-.425-.995 1.311-.995 1.311 1.933 1.876 2.829 6.614 3.234 10.373-5.074-.497-13.05-1.276-19.495-1.898.11-.643.184-1.291.22-1.943 0-1.104 1.198-5.428 1.198-5.428s3.445-8.022 5.346-12.853c3.595-.98 7.115-2.216 10.535-3.696.888 1.947 1.634 3.763 1.634 3.763z"/>
                    <path fill="#95A1AC" d="M130.495 165.828H138.418V188.507H130.495z"/>
                    <path fill="#000" fill-rule="nonzero" d="M130.495 165.828H138.418V188.507H130.495z" opacity=".3"/>
                    <path fill="#95A1AC" d="M107.575 185.915l-.125 2.592 5.831.548-18.127 4.373s-3.186-.274-2.64 4.281h4.464l.09-.91 36.25-2.553 28.145 7.015h.455v.819h5.01s.455-3.46-1.368-4.553c-1.824-1.092-11.383-4.828-11.383-4.828l15.3-1.458 3.006.092s-.09-3.826-2.369-4.1c-2.278-.273-34.442-3.37-34.442-3.37h-5.177l-1.55.465-20.067.331c-.699.007-1.27.558-1.303 1.256z"/>
                    <path fill="#000" fill-rule="nonzero" d="M138.418 165.828v2.63c-2.853.455-4.644.649-4.644.649-1.082.197-2.18.296-3.279.296v-3.575h7.923z" opacity=".1"/>
                    <path fill="#FFB8B8" fill-rule="nonzero" d="M199.945 144.318c-1.457 5.829-5.191 8.47-5.923 6.192-.661-2.077-2.696-13.57-3.042-15.555-.032-.189-.052-.293-.052-.293l-.363-2.366 3.084.279.92.084s6.831 5.829 5.376 11.66z"/>
                    <path fill="#C2A481" fill-rule="nonzero" d="M81.31 134.68s-3.186 5.372 6.013 5.554c0 0 6.831.637 11.94 10.838 5.11 10.202 23.227 19.582 34.52 17.488 0 0 37.812-4.08 42.331-18.851l3.12-8.017s12.935-.995 14.298-.821c1.364.174.456-3.732.456-3.732l-3.371-2.457-8.015 1.365-9.107 8.378-28.428 13.388-27.415-3.917s-21.677-13.93-21.858-14.573c-.182-.641-8.744-6.467-8.744-6.467l-5.74 1.823z"/>
                    <path fill="#FFB8B8" fill-rule="nonzero" d="M80.995 131.565v1.368l-.724 2.1-.557 1.634s2.184 13.39-2.55 13.48c-4.734.09-5.552-8.928-5.37-11.839.129-2.042 2.223-5.024 3.467-6.624.53-.686.906-1.12.906-1.12l4.828 1z"/>
                    <path fill="#000" fill-rule="nonzero" d="M107.575 185.915l-.125 2.592 5.831.548-18.127 4.373s-3.186-.274-2.64 4.281h4.464l.09-.91 36.25-2.553 28.145 7.015h.455v.819h5.01s.455-3.46-1.368-4.553c-1.824-1.092-11.383-4.828-11.383-4.828l15.3-1.458 3.006.092s-.09-3.826-2.369-4.1c-2.278-.273-34.442-3.37-34.442-3.37h-5.177l-1.55.465-20.067.331c-.699.007-1.27.558-1.303 1.256z" opacity=".3"/>
                    <path fill="#000" fill-rule="nonzero" d="M81.31 134.68s-3.186 5.372 6.013 5.554c0 0 6.831.637 11.94 10.838 5.11 10.202 23.227 19.582 34.52 17.488 0 0 37.812-4.08 42.331-18.851l3.12-8.017s12.935-.995 14.298-.821c1.364.174.456-3.732.456-3.732l-3.371-2.457-8.015 1.365-9.107 8.378-28.428 13.388-27.415-3.917s-21.677-13.93-21.858-14.573c-.182-.641-8.744-6.467-8.744-6.467l-5.74 1.823z" opacity=".4"/>
                    <path fill="#C2A481" fill-rule="nonzero" d="M185.326 133.274l-7.791 8.706c-18.612 21.542-53.67 13.552-65.92 11.84-12.252-1.71-18.518-20.397-18.518-20.397.465.05.934.03 1.393-.057 2.062-.354 5.928-2.06 8.18-9.645 3.173-10.696-10.533-33.955-13.852-36.522-3.318-2.567-2.597-6.99-2.308-16.418.289-9.428 7.925-5.856 7.925-5.856l12.408 7.418c30.44 4.281 46.6.428 46.6.428l13.992-6.704c6.204-1.57 7.214-1.428 10.821 6.99 3.607 8.418-2.597 15.694-2.597 15.694-20.918 15.55-18.176 36.816-14.86 44.654 2.238 5.287 12.582 3.389 19.101 1.585 3.162-.863 5.426-1.716 5.426-1.716z"/>
                    <path fill="#000" fill-rule="nonzero" d="M185.326 133.274l-7.791 8.706c-18.612 21.542-53.67 13.552-65.92 11.84-12.252-1.71-18.518-20.397-18.518-20.397.465.05.934.03 1.393-.057 2.062-.354 5.928-2.06 8.18-9.645 3.173-10.696-10.533-33.955-13.852-36.522-3.318-2.567-2.597-6.99-2.308-16.418.289-9.428 7.925-5.856 7.925-5.856l12.408 7.418c30.44 4.281 46.6.428 46.6.428l13.992-6.704c6.204-1.57 7.214-1.428 10.821 6.99 3.607 8.418-2.597 15.694-2.597 15.694-20.918 15.55-18.176 36.816-14.86 44.654 2.238 5.287 12.582 3.389 19.101 1.585 3.162-.863 5.426-1.716 5.426-1.716z" opacity=".1"/>
                    <path fill="#C2A481" fill-rule="nonzero" d="M182.592 132.719l-7.376 8.326c-17.624 20.63-50.823 12.977-62.437 11.338-11.615-1.64-17.533-19.537-17.533-19.537.44.047.883.029 1.316-.055 1.955-.338 5.615-1.973 7.746-9.234 3.005-10.249-9.972-32.517-13.114-34.975-3.142-2.458-2.465-6.686-2.187-15.696.28-9.01 7.515-5.602 7.515-5.602l11.75 7.094c28.825 4.097 44.128.41 44.128.41l13.252-6.422c5.875-1.493 6.83-1.366 10.246 6.694 3.415 8.06-2.458 15.03-2.458 15.03-19.81 14.885-17.216 35.253-14.064 42.766 2.114 5.062 11.913 3.234 18.087 1.517 2.987-.836 5.129-1.654 5.129-1.654z"/>
                    <path fill="#00DCB8" d="M194.57 132.66s-3.279-.274-3.642 2.002l-22.68 1.905-5.639.463-5.97-20.958-1.137-3.997 2.824.91s1.045 1.244 2.35 2.716c1.836 2.08 4.192 4.655 4.936 5.025.058.03.113.064.164.102 1.311.9 3.57 5 3.57 5s2.186 1.55 4.283 1.366c0 0 5.473 1.729 8.56 2.187 3.087.457 12.38 3.278 12.38 3.278z"/>
                    <path fill="#000" fill-rule="nonzero" d="M182.592 132.719l-7.376 8.326c-17.624 20.63-50.823 12.977-62.437 11.338-11.615-1.64-17.533-19.537-17.533-19.537.44.047.883.029 1.316-.055 1.607 1.336 3.087 2.819 4.42 4.428 12.844 15.211 32.339 14.209 32.339 14.209s28.234 3.368 38.617-12.48c1.714-1.674 3.56-3.207 5.52-4.585 2.992-.826 5.134-1.644 5.134-1.644z" opacity=".1"/>
                    <path fill="#000" fill-rule="nonzero" d="M194.57 132.66s-3.279-.274-3.642 2.002l-22.68 1.905-5.639.463-5.97-20.958-1.137-3.997 2.824.91s1.045 1.244 2.35 2.716c1.836 2.08 4.192 4.655 4.936 5.025.058.03.113.064.164.102 1.311.9 3.57 5 3.57 5s2.186 1.55 4.283 1.366c0 0 5.473 1.729 8.56 2.187 3.087.457 12.38 3.278 12.38 3.278z" opacity=".1"/>
                    <path fill="#000" fill-rule="nonzero" d="M194.843 132.933s-3.278-.274-3.642 2.002l-.22.02c-.033-.189-.053-.293-.053-.293l-.363-2.366 3.084.279 1.194.358z" opacity=".1"/>
                    <path fill="#000" fill-rule="nonzero" d="M175.776 150.622c-5.473 6.035-15.895 13.01-34.716 12.38 0 0-33.88 4.284-46.361-21.492 0 0-4.83-8.856-13.781-3.96l-.249.134-.547-3.826s8.015-10.749 20.856 4.463c12.84 15.211 32.338 14.209 32.338 14.209s28.236 3.368 38.62-12.48c0 0 14.676-14.844 21.586-5.737l.376 2.764.082.607s-7.199-2.37-12.283 3.823l-5.92 9.115z" opacity=".1"/>
                    <path fill="#C2A481" fill-rule="nonzero" d="M80.127 133.31s8.015-10.745 20.858 4.464c1.463 1.735 3.08 3.334 4.83 4.778 12.382 10.21 27.503 9.438 27.503 9.438s28.234 3.37 38.617-12.478c0 0 14.677-14.845 21.587-5.738l.456 3.37s-7.737-2.567-12.841 4.548c0 0-7.378 21.858-40.077 20.766 0 0-33.88 4.28-46.361-21.495 0 0-4.918-9.018-14.025-3.826l-.547-3.826z"/>
                    <path fill="#000" fill-rule="nonzero" d="M153.95 87.963l-.656.052c-.7-1.378-.876-7.463-.622-13.212l-.545-.022c-.12 2.704-.376 10.741.64 13.274-6.434.477-35.006 2.42-45.2-.015 3.528-7.448.983-13.7.955-13.764l-.497.212c.025.062 2.45 6.007-.873 13.184-1.66-2.597-10.428-15.625-18.234-13.93l.117.534c7.214-1.572 15.684 10.67 17.545 13.513l-.334-.085.722.696.248.391.048-.094c1.313 1.412 7.166 8.305 6.848 18.557-.09 2.898 1.826 5.497 5.54 7.522 4.169 2.274 9.843 3.458 14.945 3.458 4.092 0 7.818-.761 10.1-2.334 1.838-1.266 2.661-3.01 2.385-5.047-1.51-11.117 7.085-22.27 7.229-22.455 11.766-14.082 21.47-13.072 21.567-13.062l.067-.542c-.418-.05-10.05-1.078-21.995 13.169zm-7.423 22.962c.25 1.846-.472 3.369-2.151 4.525-4.896 3.37-17.247 2.789-24.476-1.151-2.455-1.341-5.358-3.645-5.253-7.028.3-9.731-4.851-16.505-6.662-18.574 10.86 2.293 39.254.32 45.072-.117.072.094.166.168.274.216-1.903 2.704-8.134 12.41-6.804 22.13zM144.978 189.144L156.468 192.478 154.177 192.697zM113.281 189.052L121.57 187.05 110.998 188.838zM80.995 131.565v1.368l-.724 2.1c-.965-2.647-3.604-3.234-5.015-3.351.53-.687.906-1.12.906-1.12l4.833 1.003z" opacity=".1"/>
                    <path fill="#00DCB8" d="M94.291 125.828l-2.002-.455s-.092.819-1.742 1.274c-1.649.455-8.925 2.642-9.928 2.642-1.002 0-5.557.273-6.012 2.094 0 0 5.376-.363 6.194 4.373l15.575-.729-2.085-9.199z"/>
                    <path fill="#000" fill-rule="nonzero" d="M94.291 125.828l-2.002-.455s-.092.819-1.742 1.274c-1.649.455-8.925 2.642-9.928 2.642-1.002 0-5.557.273-6.012 2.094 0 0 5.376-.363 6.194 4.373l15.575-.729-2.085-9.199z" opacity=".1"/>
                    <path fill="#3F3D56" fill-rule="nonzero" d="M162.923 175.102s4.575 2.612 6.318 5.14c1.205 1.817 2.285 3.715 3.234 5.678 0 0 3.416 1.493.923-3.935s-10.475-6.883-10.475-6.883z"/>
                    <path fill="#3F3D56" fill-rule="nonzero" d="M162.923 175.102s4.575 2.612 6.318 5.14c1.205 1.817 2.285 3.715 3.234 5.678 0 0 3.416 1.493.923-3.935s-10.475-6.883-10.475-6.883z"/>
                    <path fill="#000" fill-rule="nonzero" d="M162.923 175.102s4.575 2.612 6.318 5.14c1.205 1.817 2.285 3.715 3.234 5.678 0 0 3.416 1.493.923-3.935s-10.475-6.883-10.475-6.883z" opacity=".1"/>
                    <path fill="#3F3D56" fill-rule="nonzero" d="M123.948 72.264c-.291.34-.498.746-.764 1.104-1.16 1.44-3.343 1.378-5.005 2.187-2.274 1.107-3.373 3.843-3.308 6.373.064 2.53 1.067 4.925 2.007 7.276.94 2.35 1.846 4.803 1.712 7.328-.08 1.493-.523 2.946-.963 4.376-.286.925-.632 1.933-1.463 2.43 2.489.446 5.01.689 7.537.727 7.254.112 14.51-1.456 21.73-.734-1.77-1.604-2.558-4.025-2.073-6.363.202-.906.587-1.757.888-2.635 1-2.95 1.01-6.147.028-9.104-.294-.873-.672-1.719-.92-2.605-.573-2.06-.421-4.25-.83-6.348-.407-2.097-1.631-4.29-3.708-4.793-2.876-.694-5.383 2.32-8.147 1.492-2.107-.632-4.65-3.124-6.721-.711z"/>
                    <g fill="#000" fill-rule="nonzero" opacity=".1">
                        <path d="M29.393 13.022c.528-1.565.78-3.21.746-4.863-.026 1.469-.277 2.924-.746 4.316-.301.878-.689 1.741-.888 2.634-.117.542-.163 1.096-.137 1.65.013-.37.06-.74.137-1.102.199-.906.587-1.757.888-2.635zM3.744 14.428c.067-2.44-.811-4.814-1.722-7.087C1.09 5.007.097 2.627.02.127v.497C.085 3.152 1.087 5.55 2.025 7.898c.84 2.097 1.654 4.291 1.719 6.53zM29.993 21.425c-7.028-.584-14.088.89-21.145.784-2.346-.038-4.687-.25-7.002-.637-.153.18-.334.333-.535.455 2.489.446 5.01.689 7.537.727 7.254.112 14.508-1.458 21.727-.747-.207-.18-.401-.375-.582-.582z" transform="translate(114.925 81.343)"/>
                    </g>
                    <path fill="#3F3D56" fill-rule="nonzero" d="M135.376 204.507l6.005 1.107-.413.717s-4.085.388-5.137 0c-1.052-.388-.455-1.824-.455-1.824zM141.562 153.55s24.9-7.851 23.99-12.86c-.91-5.01-23.022-6.22-23.99-4.934-.967 1.286 0 17.794 0 17.794z"/>
                    <path fill="#000" fill-rule="nonzero" d="M141.562 153.55s24.9-7.851 23.99-12.86c-.91-5.01-23.022-6.22-23.99-4.934-.967 1.286 0 17.794 0 17.794z" opacity=".2"/>
                    <path fill="#FFB8B8" fill-rule="nonzero" d="M141.562 104.878l-4.726 4.192-6.013 1.092-10.838-1.366-6.102-4.192s1.077-.236 4.1-.91l2.457-.545c4.92-1.094 2.916-9.204 2.916-9.204s13.48-7.194 11.751 1.913c-.943 4.963 1.06 7.194 3.08 8.21 1.055.506 2.205.782 3.375.81z"/>
                    <circle cx="129.985" cy="88.988" r="10.478" fill="#000" fill-rule="nonzero" opacity=".1"/>
                    <circle cx="129.985" cy="88.714" r="10.478" fill="#FFB8B8" fill-rule="nonzero"/>
                    <path fill="#000" fill-rule="nonzero" d="M141.562 104.878l-4.726 4.192-6.013 1.092-10.838-1.366-6.102-4.192s1.077-.236 4.1-.91l.636.366h19.568c1.054.509 2.205.788 3.375.818z" opacity=".1"/>
                    <path fill="#00DCB8" d="M128.082 104.333h10.721s3.67-1.368 4.854-.547c1.184.821 4.554.91 5.01.547.455-.363 7.194 3.378 9.654 8.652l-8.744 6.915-37.98 15.127s-1.741-3.007-1.095-4.007c.647-1-1.184-2.91-1.184-2.91s-.636-3.371 0-4.371l-8.015-10.02s5.558-8.107 6.834-8.925c0 0 .455-1.344.91-1.264.455.08 8.577.249 8.577.249l.995.562 9.463-.008z"/>
                    <path fill="#000" fill-rule="nonzero" d="M128.082 104.333h10.721s3.67-1.368 4.854-.547c1.184.821 4.554.91 5.01.547.455-.363 7.194 3.378 9.654 8.652l-.908.719-7.836 6.196-37.98 15.127s-1.741-3.007-1.095-4.007c.647-1-1.184-2.91-1.184-2.91s-.636-3.371 0-4.371l-8.015-10.02s5.558-8.107 6.834-8.925c0 0 .455-1.344.91-1.264.455.08 8.577.249 8.577.249l.995.562 9.463-.008z" opacity=".1"/>
                    <path fill="#00DCB8" d="M104.674 112.711l-3.37.995s-8.379 11.394-9.015 11.667c-.637.274 4.097 9.654 4.097 9.654s1.639-1.276 2.46-2.094c.82-.819 10.472-9.204 10.472-9.204l-4.644-11.018z"/>
                    <path fill="#000" fill-rule="nonzero" d="M104.674 112.711l-3.37.995s-8.379 11.394-9.015 11.667c-.637.274 4.097 9.654 4.097 9.654s1.639-1.276 2.46-2.094c.82-.819 10.472-9.204 10.472-9.204l-4.644-11.018zM168.249 136.567l-5.64.463-5.97-20.958 4.038-.37c1.835 2.08 4.191 4.654 4.935 5.024.058.03.113.064.164.102.252 1 .41 2.023.47 3.053.548 7.96 1.274 9.52 1.274 9.52s.313 1.283.729 3.166z" opacity=".1"/>
                    <path fill="#FFB8B8" fill-rule="nonzero" d="M187.192 187.124c-.155-.022-.369-.044-.63-.07l-.249-.022c-3.315-.288-12.405-.729-12.405-.729-.176-.803-.394-1.597-.654-2.378-.035-.112-.075-.228-.115-.345-.855-2.488-2.47-5.9-5.062-6.747-4.189-1.365-6.647-2.915-4.46-6.378 2.186-3.462 1.092-5.555 1.092-5.555s-3.027-7.375-4.062-8.286c-.612-.54-2.127-3.567-3.286-6.395-.112-.274-.224-.55-.326-.821-.652-1.664-1.13-3.157-1.16-3.898-.084-1.918-3.524-17.863-4.109-20.56l-.082-.388s0-.045-.022-.127c-.16-.975-1.03-7.41 3.393-8.256l5.592-.515c.186.015 4.525.416 5.06 8.21.547 7.96 1.273 9.52 1.273 9.52s2.279 9.203 2.46 14.116c.182 4.913 5.6 17.306 5.6 17.306s5.328 10.199 5.786 12.843c.216 1.244.453 2.876 1.082 4.2.04.084.082.166.124.248.71 1.33 1.868 2.289 3.896 2.11.31-.025.62-.025.93 0 .133.008.265.024.396.047 2.537.43 1.691 3.112-.062 2.87z"/>
                    <path fill="#000" fill-rule="nonzero" d="M158.878 131.918c-.092 7.662-.455 14.313-.455 14.313s-.458 1.704-1.065 3.98c-.81-1.99-1.45-3.858-1.492-4.726-.097-2.08-4.202-20.933-4.202-20.933s0-.045-.022-.127l.567.127s6.749-.296 6.67 7.366z" opacity=".1"/>
                    <path fill="#FFB8B8" fill-rule="nonzero" d="M158.32 131.918c-.091 7.662-.454 14.313-.454 14.313s-.351 1.309-.844 3.167c-1.08 4.062-2.85 10.756-3.164 12.134-.455 1.99-6.467 16.028-6.467 16.028s-1.187 4.283-1.187 5.375c0 1.092-.82 5.473-.82 5.473v3.915s0 3.66-.215 6.102l-.057.563c-.092.776-.209 1.355-.366 1.532-.634.731-3.368 5.102-3.368 5.102s-.353 0-.895-.013c-1.244-.037-3.503-.186-4.814-.783-.385-.138-.713-.4-.93-.746-.667-1.331-.249-4.523-.07-5.675.04-.268.07-.427.07-.427s0-.03.022-.085c.212-.888 2.018-8.582 1.072-10.298-.995-1.821 2.279-5.737 2.279-5.737s1.729-5.923 1.64-8.107c0 0 2.46-10.749 1.82-13.753-.191-.908-.037-3.277.271-6.147.4-3.66 1.05-8.135 1.555-11.418.41-2.68.726-4.567.726-4.567s-.151-.048-.393-.102c-.631-.145-1.888-.336-2.614.191-.995.73-.64-7.741-.64-7.741l8.098-6.333 3.09.671c.208-.006.418.002.626.023 1.68.149 6.105 1.126 6.03 7.343z"/>
                    <path fill="#3F3D56" fill-rule="nonzero" d="M189.36 188.34c-.136.179-.31.324-.512.424-1.199.639-7.574 2.552-10.49 2.186-1.556-.183-3.085-.551-4.555-1.097-.341-.126-.674-.277-.995-.45h-.014c-.57-.38-1.408-3.813-1.59-4.577-.02-.097-.035-.152-.035-.152s-3.731-7.463-5.191-5.007l.995 12.206h-1.366s-.182-12.117-3.552-15.395c0 0-.975-1.786 1.092-1.274s7.015 3.826 7.562 5.739c.382 1.168.882 2.294 1.492 3.36.389.707.687 1.192.687 1.192l13.393 1.353 3.003.301s.482.615.077 1.192z"/>
                    <path fill="#000" fill-rule="nonzero" d="M189.36 188.34c-.136.179-.31.324-.512.424-1.199.639-7.574 2.552-10.49 2.186-1.556-.183-3.085-.551-4.555-1.097-.341-.126-.674-.277-.995-.45h-.014c2.927-.522 9.395-1.577 13.554-1.493 1.276.01 2.339.15 3.013.43zM186.286 186.567c0 .15 0 .306.015.468-3.316-.289-12.405-.729-12.405-.729-.202-.927-.458-1.84-.77-2.736 2.394-1.097 5.822-2.279 8.774-1.727.695 1.46 1.869 2.55 4.02 2.358.31-.024.621-.024.93 0-.373.733-.567 1.544-.564 2.366z" opacity=".1"/>
                    <path fill="#000" fill-rule="nonzero" d="M186.56 186.838v.217l-.25-.023c-3.315-.288-12.405-.729-12.405-.729-.175-.803-.393-1.597-.654-2.378 2.358-1.1 5.801-2.323 8.784-1.823.709 1.33 1.868 2.289 3.895 2.11.31-.025.621-.025.93 0 .133.008.265.024.396.047-.456.783-.697 1.673-.696 2.58z" opacity=".1"/>
                    <path fill="#3F3D56" fill-rule="nonzero" d="M186.286 186.838c-.001.354.028.707.087 1.055h-.03l-12.54 1.96c-.341-.126-.674-.277-.995-.45h-.014c-.57-.38-1.408-3.813-1.59-4.577.289-.157.627-.333 1.007-.523 2.722-1.36 7.57-3.29 11.162-1.72 0 0 2.916 1.325 4.008 1.116-.005-.01-1.085 1.107-1.095 3.14z"/>
                    <path fill="#000" fill-rule="nonzero" d="M145.114 198.98c-.092.776-.209 1.356-.365 1.532-.635.732-3.368 5.102-3.368 5.102s-.359 0-.908-.012c-.073-1.177-.52-3.117-2.645-3.16-1.679-.032-2.117 1.232-2.169 2.376-.385-.137-.712-.4-.93-.746-.667-1.33-.249-4.522-.07-5.674 1.197.415 5.87 1.863 10.455.582z" opacity=".1"/>
                    <path fill="#000" fill-rule="nonzero" d="M145.172 198.418l-.058.562c-.092.776-.209 1.356-.365 1.532-.635.732-3.368 5.102-3.368 5.102s-.354 0-.896-.012c.017-.96-.152-3.654-2.657-3.706-1.955-.038-2.238 1.684-2.169 2.922-.385-.137-.712-.4-.93-.746-.667-1.33-.249-4.522-.07-5.674.04-.269.07-.428.07-.428s0-.03.022-.084c1.334.45 5.93 1.81 10.42.532z" opacity=".1"/>
                    <path fill="#3F3D56" fill-rule="nonzero" d="M134.366 198.01s5.783 2.32 11.248.545l.329 6.42s-5.249 1.84-5.473 1.244c0 0 .408-3.98-2.642-4.037-3.05-.058-2.005 4.161-2.005 4.161s-2.32-.716-2.276-1.308c.045-.592.334-6.465.819-7.025z"/>
                    <path fill="#000" fill-rule="nonzero" d="M161.18 115.92c-5.18-1.547-8.344 7.055-8.881 8.647-.055.16-.083.249-.083.249-.156.035-.313.072-.462.114-8.926 2.341-8.388 10.448-8.033 12.809-.631-.144-1.888-.336-2.614.191-.995.73-.64-7.74-.64-7.74l8.108-6.31 3.09.672s0-.045-.023-.127c-.16-.975-1.03-7.41 3.393-8.256l5.592-.515.552.266z" opacity=".1"/>
                    <path fill="#00DCB8" d="M113.418 130.565l-1.821 4.462s-7.56 10.475-.637 15.12c6.923 4.644 30.597 3.403 30.597 3.403l1.742-15.423s-2.647-11.013 8.365-13.575c0 0 3.256-10.6 8.955-8.895l-10.873-5.495-14.925 5.557-12.662 6.83-8.741 8.016z"/>
                    <path fill="#000" fill-rule="nonzero" d="M113.418 130.565l-1.821 4.462s-7.56 10.475-.637 15.12c6.923 4.644 30.597 3.403 30.597 3.403l1.742-15.423s-2.647-11.013 8.365-13.575c0 0 3.256-10.6 8.955-8.895l-10.873-5.495-14.925 5.557-12.662 6.83-8.741 8.016z" opacity=".1"/>
                    <path fill="#000" fill-rule="nonzero" d="M113.873 138.853s2.279-5.395 5.102-6.935c2.824-1.54-5.102 6.935-5.102 6.935zM123.62 129.104s20.31-13.206 27.688-12.935l-27.689 12.935zM130.07 82.806c3.77.373 6.5 4.08 10.238 4.684.316.074.646.056.95-.052.956-.42.64-1.841.17-2.771l-2.122-4.187c-.522-1.03-1.07-2.09-1.953-2.836-.746-.622-1.654-.995-2.57-1.28-3.596-1.167-7.651-1.461-11.067.158-1.92.913-7.094 5.592-4.385 7.844 2.428 2.02 7.89-1.844 10.739-1.56z" opacity=".1"/>
                    <path fill="#3F3D56" fill-rule="nonzero" d="M130.07 82.532c3.77.373 6.5 4.082 10.238 4.684.316.075.646.056.95-.052.956-.42.64-1.84.17-2.771l-2.122-4.187c-.522-1.03-1.07-2.09-1.953-2.835-.746-.622-1.654-.995-2.57-1.281-3.596-1.165-7.651-1.46-11.067.159-1.92.913-7.094 5.592-4.385 7.843 2.428 2.02 7.89-1.843 10.739-1.56z"/>
                    <path fill="#000" fill-rule="nonzero" d="M112.455 129.353c2.306.26 4.64.005 6.836-.746M90.866 127.664s1.741.249 1.741 1.443-1.741-1.443-1.741-1.443zM91.731 132.294s.319-.555.866.497c.547 1.052-.866-.497-.866-.497zM141.259 86.617c-.305.108-.635.127-.95.055-3.732-.605-6.468-4.311-10.24-4.687-2.85-.284-8.31 3.58-10.74 1.56-.416-.326-.684-.804-.747-1.329-.104.714.18 1.43.746 1.876 2.43 2.02 7.89-1.843 10.742-1.56 3.768.373 6.5 4.082 10.238 4.684.316.074.646.056.95-.052.54-.249.672-.798.6-1.408-.027.375-.257.706-.6.86zM137.527 126.82s11.13-2.91 14.145-2.268l-14.145 2.269z" opacity=".1"/>
                    <path fill="#535461" fill-rule="nonzero" d="M29.219 129.664H30.632V161.48H29.219z"/>
                    <path fill="#3F3D56" fill-rule="nonzero" d="M39.512 161.383l-.09 1.433-.123 2.022-.053.844-.124 2.024-.055.844-.124 2.022-1.428 23.005c-.128 2.054-1.83 3.654-3.888 3.654H26.22c-2.057 0-3.76-1.6-3.888-3.654l-1.428-23.005-.124-2.022-.052-.844-.127-2.024-.052-.844-.125-2.022-.09-1.433c-.034-.556.163-1.101.545-1.507.382-.405.914-.635 1.47-.635H37.5c.556 0 1.088.23 1.47.636.38.406.577.95.542 1.506z"/>
                    <path fill="#9D9CB5" fill-rule="nonzero" d="M39.423 162.816L39.299 164.838 20.55 164.838 20.425 162.816zM39.246 165.682L39.122 167.706 20.729 167.706 20.602 165.682zM39.067 168.55L38.943 170.572 20.908 170.572 20.781 168.55z"/>
                    <path fill="#2D89FF" fill-rule="nonzero" d="M18.266 141.59c8.232 5.955 11.657 15.266 11.657 15.266s-9.916-.341-18.147-6.294C3.545 144.61.12 135.296.12 135.296s9.918.34 18.147 6.294z"/>
                    <path stroke="#535461" stroke-width=".5" d="M.12 135.296s10.293 5.721 13.596 10.448c3.304 4.726 16.207 11.114 16.207 11.114"/>
                    <path fill="#2D89FF" fill-rule="nonzero" d="M23.58 129.602c4.477 3.234 6.343 8.308 6.343 8.308s-5.396-.184-9.876-3.425c-4.48-3.241-6.346-8.308-6.346-8.308s5.399.191 9.879 3.425z"/>
                    <path stroke="#535461" stroke-width=".5" d="M13.701 126.17s5.602 3.109 7.401 5.683c1.798 2.575 8.82 6.05 8.82 6.05"/>
                    <path fill="#2D89FF" fill-rule="nonzero" d="M36.433 137.647c-5.144 5.654-6.234 13.045-6.234 13.045s7.254-1.782 12.4-7.436c5.147-5.654 6.234-13.045 6.234-13.045s-7.253 1.779-12.4 7.436z"/>
                    <path stroke="#535461" stroke-width=".5" d="M48.833 130.211s-6.704 5.796-8.405 9.791c-1.702 3.996-10.229 10.697-10.229 10.697"/>
                    <path fill="#000" fill-rule="nonzero" d="M215.423 159.729s1.438 1.878-.664 4.726-3.834 5.224-3.132 7.003c0 0 3.169-5.269 5.749-5.344 2.58-.074.885-3.216-1.953-6.385z" opacity=".1"/>
                    <path fill="#000" fill-rule="nonzero" d="M215.423 159.729c.126.181.225.38.293.59 2.518 2.957 3.859 5.72 1.438 5.785-2.254.065-4.957 4.095-5.604 5.112.02.08.046.156.077.232 0 0 3.169-5.269 5.749-5.344 2.58-.074.885-3.206-1.953-6.375z" opacity=".1"/>
                    <path fill="#3F3D56" fill-rule="nonzero" d="M218.095 162.124c0 .662-.075 1.197-.167 1.197-.092 0-.164-.535-.164-1.197 0-.661.092-.35.184-.35s.147-.311.147.35z"/>
                    <path fill="#3F3D56" fill-rule="nonzero" d="M219.012 162.913c-.582.318-1.087.51-1.131.428-.045-.082.39-.403.972-.72.582-.315.351-.084.396 0 .045.085.343-.024-.237.292z"/>
                    <path fill="#2D89FF" fill-rule="nonzero" d="M207.83 159.729s-1.437 1.878.663 4.726c2.099 2.848 3.833 5.224 3.134 7.003 0 0-3.17-5.269-5.751-5.344-2.582-.074-.883-3.216 1.955-6.385z"/>
                    <path fill="#00DCB8" d="M215.423 159.729s1.438 1.878-.664 4.726-3.834 5.224-3.132 7.003c0 0 3.169-5.269 5.749-5.344 2.58-.074.885-3.216-1.953-6.385z"/>
                    <path fill="#000" fill-rule="nonzero" d="M207.83 159.729s-1.437 1.878.663 4.726c2.099 2.848 3.833 5.224 3.134 7.003 0 0-3.17-5.269-5.751-5.344-2.582-.074-.883-3.216 1.955-6.385z" opacity=".1"/>
                    <path fill="#000" fill-rule="nonzero" d="M207.83 159.729c-.125.181-.224.38-.293.59-2.517 2.957-3.858 5.72-1.44 5.785 2.254.065 4.958 4.095 5.607 5.112-.022.079-.047.156-.077.232 0 0-3.17-5.279-5.751-5.344-2.582-.064-.883-3.206 1.955-6.375z" opacity=".1"/>
                    <path fill="#D4DFEC" fill-rule="nonzero" d="M205.147 162.124c0 .662.074 1.197.166 1.197.092 0 .167-.535.167-1.197 0-.661-.092-.35-.184-.35s-.15-.311-.15.35z"/>
                    <path fill="#D4DFEC" fill-rule="nonzero" d="M204.241 162.913c.58.318 1.087.51 1.132.428.045-.082-.393-.403-.973-.72-.58-.315-.353-.084-.395 0-.042.085-.35-.024.236.292z"/>
                    <path fill="#3F3D56" fill-rule="nonzero" d="M219.36 168.905l-.071.588-.1.828-.042.346-.102.83-.043.346-.102.829-1.149 9.428c-.102.84-1.477 1.492-3.137 1.492h-5.985c-1.661 0-3.034-.657-3.136-1.492l-1.152-9.428-.1-.829-.042-.345-.104-.831-.04-.346-.102-.828-.05-.588c-.057-.475.687-.878 1.627-.878h12.221c.923.01 1.67.413 1.61.878z"/>
                    <path fill="#9D9CB5" fill-rule="nonzero" d="M219.291 169.502L219.189 170.331 204.065 170.331 203.963 169.502zM219.147 170.677L219.047 171.507 204.209 171.507 204.107 170.677zM219.002 171.853L218.903 172.682 204.351 172.682 204.251 171.853z"/>
                </g>
            </g>
        </g>
    </g>
</svg>
