<svg xmlns="http://www.w3.org/2000/svg" width="16" height="16" viewBox="0 0 16 16">
    <path fill="#FFF" fill-rule="evenodd" d="M8.12 1.667c.204 0 .405.014.601.043-.247.351-.438.745-.561 1.167l-.067.257-.141.005C6.557 3.226 5.454 4.384 5.454 5.8c0 1.473 1.194 2.667 2.666 2.667.807 0 1.53-.359 2.02-.925.452.238.956.392 1.49.441-.533.856-1.371 1.503-2.363 1.79 1.977.362 3.69 1.655 4.57 3.513.173.366.017.804-.35.977-.366.173-.803.017-.976-.35-.803-1.697-2.513-2.78-4.39-2.78-1.879 0-3.588 1.083-4.391 2.78-.174.367-.61.523-.977.35-.366-.173-.522-.61-.35-.977.88-1.858 2.594-3.15 4.57-3.515C5.25 9.275 3.988 7.685 3.988 5.8c0-2.283 1.85-4.133 4.133-4.133zm3.88-1c.295 0 .533.238.533.533v1.6h1.6c.295 0 .534.239.534.533 0 .295-.24.534-.534.534h-1.6v1.6c0 .294-.238.533-.533.533-.295 0-.533-.239-.533-.533v-1.6h-1.6c-.295 0-.534-.24-.534-.534 0-.294.24-.533.534-.533h1.6V1.2c0-.295.238-.533.533-.533z"/>
</svg>
