<svg xmlns="http://www.w3.org/2000/svg" width="24" height="25" viewBox="0 0 24 25">
    <path fill="#95A1AC" fill-rule="evenodd" d="M5.466 2.568c.92-.243 1.877.224 2.253 1.098l2.2 5.137c.303.712.147 1.536-.397 2.092l-1.55 1.571.156.232c.4.575.833 1.121 1.292 1.63l.35.376c.631.61 1.31 1.167 2.03 1.667l.233.156 1.571-1.546c.516-.511 1.271-.684 1.95-.46l.156.06 5.13 2.198c.874.376 1.34 1.335 1.096 2.252l-1.065 4.03c-.223.87-1.02 1.467-1.94 1.438-4.934-.27-9.603-2.32-13.157-5.79C2.323 15.176.272 10.508.001 5.552c-.03-.897.567-1.694 1.436-1.919zM5.91 4.52L2.004 5.55l.023.344c.325 4.147 2.045 8.062 4.866 11.091l.296.31c3.19 3.114 7.4 4.964 11.829 5.205l-.066-.004 1.032-3.908-5.013-2.148-2.656 2.618-.665-.402c-1.18-.712-2.277-1.555-3.296-2.539-.954-.992-1.796-2.087-2.51-3.265l-.402-.666 2.614-2.654-2.147-5.013zM14 .5c5.43 0 9.848 4.327 9.996 9.72l.004.28v1h-2v-1c0-4.335-3.448-7.865-7.75-7.996L14 2.5h-1v-2h1zm0 4c3.238 0 5.878 2.566 5.996 5.775L20 10.5v1h-2v-1c0-2.142-1.684-3.891-3.8-3.995L14 6.5h-1v-2h1z"/>
</svg>
