<svg xmlns="http://www.w3.org/2000/svg" width="24" height="24" viewBox="0 0 24 24">
    <path fill="#95A1AC" fillRule="evenodd" d="M7.5 12h1.875V9.375H7.5V12zm0 4.5h1.875v-2.625H7.5V16.5zm3.375 0h1.875v-2.625h-1.875V16.5zM18.17 4.875h-1.295V2.803c0-.723-.607-1.303-1.33-1.303h-7.5c-.724 0-1.295.58-1.295 1.303v2.072H5.42c-.724 0-1.295.58-1.295 1.303V22.5h5.25v-1.875H6V6.75h2.625V3.375H15V6.75h2.625v13.875H12.75v-1.5h-1.875V22.5H19.5V6.178c0-.723-.607-1.303-1.33-1.303zm-2.045 4.5H14.25V12h1.875V9.375zM14.25 16.5h1.875v-2.625H14.25V16.5zm-1.5-7.125h-1.875V12h1.875V9.375z" />
</svg>