<svg xmlns="http://www.w3.org/2000/svg" width="294" height="200" viewBox="0 0 294 200">
    <g fill="none" fill-rule="evenodd">
        <g>
            <g transform="translate(-581 -315) translate(581.881 315)">
                <path fill="#212529" d="M110.638 190.013c0 5.196-24.368 9.41-54.429 9.41-30.06 0-54.429-4.214-54.429-9.41 0-1.3 1.521-2.536 4.273-3.66 8.012-3.279 26.46-5.609 48.142-5.743.669-.005 1.34-.008 2.014-.008 30.06 0 54.43 4.214 54.43 9.41z"/>
                <path fill="#000" fill-rule="nonzero" d="M54.195 180.61c-4.941 8.055-13.297 13.407-22.68 14.526-9.384 1.12-18.764-2.116-25.462-8.783 8.012-3.279 26.46-5.609 48.142-5.743z" opacity=".1"/>
                <ellipse cx="28.486" cy="159.746" fill="#454B52" rx="28.486" ry="30.521"/>
                <path fill="#3F3D56" fill-rule="nonzero" d="M63.44 21.196c4.038 15.56 17.068 25.617 29.131 22.485"/>
                <path fill="#2D89FF" d="M92.571 43.681c-4.084-15.734 3.504-31.294 16.966-34.788M71.713 20.554c3.837 14.78 13.166 25.124 20.858 23.127"/>
                <path fill="#3F3D56" fill-rule="nonzero" d="M92.571 43.681C87.352 23.576 95.72 4.04 111.28 0"/>
                <path fill="#A8A8A8" fill-rule="nonzero" d="M88.031 45.072s3.07-.9 3.831-1.805c.76-.907 4.383-2.694 4.89-1.688.509 1.005 6.027 4.09 2.54 5.026-3.487.935-8.26 1.563-9.339 1.237-1.078-.325-1.922-2.77-1.922-2.77z"/>
                <path fill="#000" fill-rule="nonzero" d="M99.258 46.218c-3.487.935-8.26 1.563-9.338 1.237-.822-.248-1.506-1.724-1.786-2.414-.065.02-.103.03-.103.03s.844 2.446 1.922 2.771c1.079.326 5.852-.302 9.34-1.237 1.006-.27 1.261-.72 1.104-1.246-.057.357-.39.658-1.139.859z" opacity=".2"/>
                <path fill="#2A2E32" d="M87.239 32.067H292.238V150.844H87.239z"/>
                <path fill="#0F9279" d="M92.071 68.12H204.49V127H92.071z"/>
                <path fill="#454B52" d="M213.137 65.553H258.227V68.047H213.137zM213.137 70.158H278.757V72.652H213.137zM213.137 81.286H258.227V83.78H213.137zM213.137 99.706H258.227V102.2H213.137zM213.137 85.891H278.757V88.385H213.137zM213.137 90.496H278.757V92.99H213.137zM213.137 95.101H278.757V97.595H213.137z"/>
                <path fill="#2D89FF" d="M213.137 110.835H236.737V117.359H213.137z"/>
                <path fill="#A0616A" fill-rule="nonzero" d="M79.987 103.749s4.237-12.003 7.296-8.238c3.06 3.766-4.707 10.12-4.707 10.12l-2.589-1.882z"/>
                <path fill="#2D89FF" d="M59.981 91.98l2.549.945s1.217 5.41.746 6.352c-.47.942-.706.235 0 2.118s2.825 6.826 3.06 7.532c.235.706 13.651-4.472 13.651-7.06 0 0 2.824 3.294 4.237 4 0 0-15.534 11.298-17.653 12.71-2.118 1.412-3.295.706-5.178-.942-1.883-1.647-9.885-15.298-9.885-15.298l8.473-10.356z"/>
                <path fill="#2F2E41" fill-rule="nonzero" d="M66.807 175.535s-.236 2.589-.706 2.824c-.471.235-4.002 6.12 0 7.296 4 1.177 6.354.706 7.296 1.177.941.47 17.417 1.412 17.652-1.177.235-2.589-8.002-3.06-8.002-3.06s-7.532-4.942-8.709-7.531c-1.177-2.59-7.531.47-7.531.47zM19.028 180.242s-5.649 9.65-4.236 10.826c1.412 1.177 15.165 5.466 17.181 5.65 2.589.235 4.472-1.884 2.354-3.06-2.119-1.177-6.59-6.12-6.59-7.767v-4.237l-8.709-1.412z"/>
                <path fill="#2F2E41" fill-rule="nonzero" d="M13.615 117.165s-4.943 6.12 2.824 16.004l12.945 16.476s-8.002 12.71-8.238 19.3c-.235 6.59-1.883 5.177-2.353 8.002-.471 2.824-2.59 1.412-.942 3.53s7.767 4.001 9.65 2.354c1.883-1.648 1.883-3.766 1.883-4.707 0-.942 3.295-6.355 3.53-8.003.236-1.647 8.944-15.063 8.944-15.063s2.825-8.002-.47-12.474c-3.296-4.472-5.473-10.814-5.473-10.814s9.71 11.755 16.535 14.58c0 0 2.589.47 2.118 1.647-.47 1.177 0 1.883.706 3.06s5.649 14.828 7.296 18.358c1.648 3.53.942 5.649 2.825 6.826 1.882 1.176 10.355.235 10.355-.942s-1.176-4.236-1.882-5.884c-.707-1.647-6.355-20.712-5.885-24.007.471-3.295-.235-7.767-3.765-9.65-3.53-1.883-21.418-17.181-22.36-17.181-.941 0-28.243-1.412-28.243-1.412z"/>
                <circle cx="60.923" cy="70.328" r="9.885" fill="#A0616A" fill-rule="nonzero"/>
                <path fill="#A0616A" fill-rule="nonzero" d="M52.92 71.269s-3.06 5.413-6.825 6.12c-3.766.706 9.885 11.532 9.885 11.532s3.295-10.356 6.12-10.826c2.824-.471-9.18-6.826-9.18-6.826z"/>
                <path fill="#2D89FF" d="M62.57 93.393c0 3.06-9.179 11.768-9.179 11.768l-8.708 7.296s-.236 2.59-1.177 2.825c-.942.235-2.118.235-1.177 1.647.941 1.412 3.295 4.472 1.177 4.943-.639.097-1.282.158-1.928.183-.565.033-1.228.064-1.975.092-1.741.061-3.92.101-6.281.085-.671-.002-1.354-.01-2.048-.024-8.9-.176-19.208-1.2-18.365-4.573 1.412-5.648.47-7.531 3.53-10.59 3.06-3.06 8.002-13.652 8.002-13.652s9.886-16.71 18.123-16.71l1.711-.45c1.63-.43 3.353.232 4.277 1.643 1.652 2.516 4.258 6.296 5.78 7.515 2.354 1.883 2.721.532 2.721.532s5.517 4.41 5.517 7.47z"/>
                <path fill="#A0616A" fill-rule="nonzero" d="M41.623 129.168s6.825 10.591 2.589 12.474c-4.237 1.883-6.59-11.062-6.59-11.062l4-1.412z"/>
                <path fill="#2F2E41" fill-rule="nonzero" d="M54.46 69.211c.38-.048.5-.527.563-.904.342-2.019 1.847-3.933 3.869-4.26.772-.102 1.558-.039 2.304.187 1.07.293 2.073.787 2.958 1.455.467.353.916.763 1.477.928.371.11 1.946.81 2.314.928.81.26 1.479 1.107 2.312.94.797-.161 1.1-1.124 1.228-1.927.292-1.83-.755-4.559-1.796-6.091-.79-1.163-2.127-1.832-3.464-2.268-1.566-.475-3.175-.795-4.804-.954-2.198-.26-4.476-.398-6.583.282-2.107.68-4.026 2.342-4.42 4.521-.081.454-.096.919-.197 1.37-.245 1.097-.971 2.02-1.395 3.062-.618 1.548-.553 3.285.18 4.783.587 1.18 1.607 2.314 1.387 3.614l1.816-1.433c.541-.307.794-.95.607-1.544l-.264-2.274c-.049-.416-.09-.866.117-1.23.808-1.41 1.159.895 1.791.815z"/>
                <path fill="#000" fill-rule="nonzero" d="M37.386 112.928l2.217 9.22c-2.235.08-5.194.122-8.329.06-.79-2.372-1.546-4.846-2.125-7.162-2.119-8.473 1.412-21.418 3.295-27.537 1.883-6.12 6.59-7.767 6.59-7.767s2.354.706 5.413 2.824c3.06 2.119-7.06 30.362-7.06 30.362z" opacity=".1"/>
                <path fill="#000" fill-rule="nonzero" d="M39.27 112.457l2.308 9.598c-.565.033-1.228.064-1.975.092-1.741.061-3.92.101-6.281.085-.85-2.52-1.671-5.18-2.29-7.656-2.119-8.473 1.412-21.418 3.295-27.538 1.883-6.12 6.001.589 6.001.589s-1.647-4.001 1.413-1.883c3.06 2.118-2.472 26.713-2.472 26.713z" opacity=".1"/>
                <path fill="#2D89FF" d="M39.975 79.271s-4.707 1.648-6.59 7.767c-1.883 6.12-5.413 19.065-3.295 27.538 2.118 8.473 6.59 19.064 6.59 19.064s4.472-3.295 6.12-2.589l-4.472-18.594s10.12-28.243 7.06-30.361c-3.059-2.119-5.413-2.825-5.413-2.825z"/>
                <path fill="#454B52" d="M87.239 62.016H199.65800000000002V120.896H87.239z"/>
                <ellipse cx="145.54" cy="92.608" fill="#FFF" fill-rule="nonzero" rx="12.721" ry="12.745"/>
                <path fill="#18B99A" fill-rule="nonzero" d="M145.54 77.692c-8.397 0-15.204 6.807-15.204 15.203 0 8.397 6.807 15.204 15.204 15.204 8.396 0 15.203-6.807 15.203-15.204-.024-8.386-6.817-15.179-15.203-15.203zm-3.122 23.31l-7.791-7.792 2.185-2.186 5.614 5.614 11.848-11.849 2.186 2.186-14.042 14.027z"/>
            </g>
        </g>
    </g>
</svg>
