<svg xmlns="http://www.w3.org/2000/svg" width="250" height="250" viewBox="0 0 250 250">
    <g fill="none" fill-rule="evenodd">
        <g>
            <g>
                <g>
                    <g transform="translate(-595 -201) translate(595 201) translate(.5 11.5) translate(0 66.216)">
                        <ellipse cx="102.092" cy="152.457" fill="#2A2E32" rx="102.092" ry="6.972"/>
                        <path fill="#A0616A" fill-rule="nonzero" d="M134.771 52.563l-5.288-2.645 4.407-11.9 1.161-6c.307-1.587 1.435-2.89 2.961-3.423 1.526-.532 3.22-.212 4.447.84 1.857 1.592 2.118 4.37.59 6.28l-4.311 5.389-3.967 11.459z"/>
                        <path fill="#E6E6E6" fill-rule="nonzero" d="M136.536 51.24l-.976 3.053-4.377 13.715c-.875 2.747-3.278 4.726-6.141 5.058-2.864.333-5.656-1.043-7.138-3.515l-14.19-24.322c-.228-.379-.421-.777-.58-1.19-1.424-3.738.342-7.936 4.011-9.532 3.67-1.596 7.945-.026 9.708 3.565l8.664 18.458 3.965-8.815 7.054 3.525z"/>
                        <path fill="#2F2E41" fill-rule="nonzero" d="M134.493 139.833l-9.696.882-5.289-38.343c-17.433 2.933-33.88 3.872-48.105.324-2.43-.597-4.5-2.182-5.713-4.372-1.212-2.19-1.455-4.785-.671-7.162 1.703-5.081 4.702-10.526 8.213-16.115l23.359 8.374.881 3.526 24.915-3.154c2.544-.322 5.106.439 7.062 2.097 1.956 1.658 3.126 4.061 3.224 6.624l1.82 47.32z"/>
                        <path fill="#2F2E41" fill-rule="nonzero" d="M145.052 147.263c.19-1.34-.415-2.667-1.551-3.4l-9.953-4.885-7.504.947-1.773 6.353c-.151.915.08 1.852.64 2.592.558.74 1.397 1.217 2.318 1.32l14.003.031c1.864.21 3.556-1.1 3.82-2.958z"/>
                        <path fill="#C2A481" fill-rule="nonzero" d="M136.942 134.931l-9.696.881-5.288-38.343c-17.434 2.933-33.88 3.873-48.106.325-2.43-.598-4.5-2.182-5.712-4.372-1.212-2.19-1.456-4.786-.672-7.162 1.703-5.082 4.702-10.527 8.214-16.115l23.358 8.373.882 3.526 24.914-3.154c2.544-.322 5.106.44 7.062 2.097 1.956 1.659 3.126 4.062 3.224 6.624l1.82 47.32z"/>
                        <path fill="#2F2E41" fill-rule="nonzero" d="M147.502 142.36c.19-1.339-.416-2.666-1.552-3.4l-9.953-4.885-7.504.948-1.772 6.353c-.152.915.08 1.852.638 2.591.56.74 1.398 1.217 2.32 1.321l14.002.03c1.864.21 3.557-1.1 3.82-2.957z"/>
                        <circle cx="119.313" cy="18.139" r="11.9" fill="#A0616A" fill-rule="nonzero"/>
                        <path fill="#A0616A" fill-rule="nonzero" d="M118.873 42.379L105.21 40.616 110.499 24.309 123.72 24.309z"/>
                        <path fill="#00DCB8" d="M122.59 58.821c-.692 1.925-1.697 3.723-2.973 5.321-1.819 2.233-4.004 4.14-6.463 5.639-.428.277-.872.543-1.332.805l-2.625 2.236-9.274 7.898-25.563-9.694c5.638-12.53 12.672-22.434 20.733-30.412 3.43-5.03 9.632-7.392 15.54-5.916l9.563 2.391c3.402 8.03 4.667 15.412 2.395 21.732z"/>
                        <path fill="#3F3D56" fill-rule="nonzero" d="M126.787 40.77c-.36.355-.37.934-.019 1.298.295.128 6.126 6.773 6.484 6.316.247.002.484-.094.658-.268L151.702 30.4c.198-.196.295-.47.266-.747.48-.45-7.175-4.987-7.409-5.233-.36-.238-.838-.19-1.145.112L126.787 40.77z"/>
                        <path fill="#FFF" fill-rule="nonzero" d="M150.177 29.465l-.724-.462c.149.28.089.625-.145.838-.234.214-.583.242-.848.068l-4.685-3.221c-.214-.151-.325-.41-.286-.67.038-.258.22-.474.468-.556-.185-.063-.485-.44-.686-.203l-15.762 15.49c-.562.273 5.727 5.722 5.73 5.937.47.523 16.637-16.82 16.98-16.832.055-.054.08-.13.073-.205-.009-.075-.051-.143-.115-.184z"/>
                        <path fill="#00DCB8" fill-rule="nonzero" d="M131.986 37.329L136.821 41.887 148.322 30.525 142.485 26.726z"/>
                        <path fill="#E6E6E6" fill-rule="nonzero" d="M147.875 33.329c.066.063.17.063.236 0 .053-.147 1.28-1.041 1.006-1.242-.066-.064-.17-.064-.237 0-.053.147-1.28 1.04-1.005 1.242zM146.417 35.023c.053-.147 1.28-1.041 1.006-1.242-.205-.273-1.091.95-1.243 1.006-.156.151.086.391.237.236z"/>
                        <path fill="#00DCB8" fill-rule="nonzero" d="M133.227 41.242c.021 1.465-2.28 1.465-2.26 0-.02-1.466 2.281-1.466 2.26 0z"/>
                        <path fill="#000" fill-rule="nonzero" d="M119.617 64.142c-1.819 2.233-4.004 4.14-6.463 5.639-.428.277-.872.543-1.332.805l-2.625 2.236c-5.21-6.848-4.917-27.652-4.917-27.652l7.93.793 7.407 18.18z" opacity=".2"/>
                        <path fill="#A0616A" fill-rule="nonzero" d="M135.18 58.686l-5.29-2.645 4.408-11.9 1.162-6c.307-1.587 1.434-2.89 2.96-3.423 1.526-.532 3.22-.212 4.447.84 1.858 1.592 2.119 4.37.59 6.28l-4.311 5.389-3.967 11.459z"/>
                        <path fill="#00DCB8" d="M129.89 53.838l7.052 3.526-5.351 16.767c-.782 2.45-2.788 4.31-5.29 4.906-3.11.74-6.343-.62-7.988-3.362l-14.19-24.323c-2.092-3.486-1.02-8.003 2.414-10.178 1.796-1.138 3.99-1.458 6.037-.881 2.046.576 3.751 1.996 4.689 3.904l8.661 18.455 3.967-8.814z"/>
                        <path fill="#2F2E41" fill-rule="nonzero" d="M123.792 13.504c.97.809 2.065 1.455 3.241 1.913 1.195.4 2.582.41 3.648-.262 1.258-.792 1.832-2.4 1.703-3.88-.13-1.481-.855-2.847-1.723-4.054-3.24-4.506-8.44-7.19-13.99-7.221-5.55-.03-10.78 2.596-14.07 7.066-1.113 1.513-1.995 3.27-2.092 5.146-.17 3.305 2.092 6.391 1.85 9.693-.204 2.792-2.209 5.184-4.582 6.669-2.374 1.484-5.117 2.237-7.771 3.129-2.654.891-5.338 1.991-7.302 3.986-1.965 1.995-3.048 5.091-1.97 7.675.886 2.123 2.992 3.473 5.103 4.388 5.66 2.424 12.019 2.662 17.845.67 2.148-.745 4.494-2.235 4.527-4.508.014-.987-.43-1.913-.697-2.863-.266-.95-.316-2.083.352-2.809.83-.9 2.363-.693 3.354.025.991.718 1.636 1.806 2.453 2.717 1.553 1.728 3.907 2.832 6.208 2.507 2.3-.326 4.38-2.286 4.476-4.607.163-3.989-4.834-6.486-5.377-10.44-.363-2.641 1.357-5.058 2.847-7.268 1.49-2.211 2.876-4.98 1.833-7.434"/>
                        <path fill="#3F3D56" fill-rule="nonzero" d="M59.674 106.826c-3.323-.002-6.424-1.667-8.26-4.436-1.837-2.77-2.165-6.274-.873-9.335l1.46.618c-1.304 3.095-.623 6.67 1.729 9.068 2.351 2.398 5.912 3.15 9.032 1.908l.589 1.473c-1.17.467-2.418.706-3.677.704z"/>
                        <path fill="#2D89FF" fill-rule="nonzero" d="M49.363 96.453c-2.32-.075-4.162-1.977-4.162-4.298V20.983c.757-.757 1.805-1.148 2.873-1.07 1.067.078 2.048.616 2.687 1.475 20.268 27.407 21.16 51.984 1.957 73.626-.85.954-2.078 1.481-3.355 1.439z"/>
                        <path fill="#3F3D56" fill-rule="nonzero" d="M44.607 92.155V21.181c.735.001 1.412.4 1.77 1.042 9.224 16.556 16.067 29.675 15.88 41.564-.167 10.617-7.626 15.519-14.132 26.382-.743 1.234-2.078 1.988-3.518 1.986zM74.939 106.628L62.647 106.628 62.647 103.456 72.56 100.68z"/>
                        <path fill="#3F3D56" fill-rule="nonzero" d="M70.578 103.456h32.513c0 3.722-3.018 6.74-6.74 6.74H77.317c-3.723 0-6.74-3.018-6.74-6.74z"/>
                        <path fill="#454B52" d="M86.041 109.403H90.40299999999999V112.97200000000001H86.041z"/>
                        <path fill="#454B52" d="M84.455 112.179H92.38499999999999V122.885H84.455zM85.05 128.634H91.791V142.908H85.05z"/>
                        <path fill="#454B52" d="M95.359 130.22L81.481 130.22 83.464 121.497 95.359 121.497z"/>
                        <path fill="#454B52" d="M83.067 129.427L54.916 142.51l-.397 1.983h-3.965l.19-3.033c.128-2.051 1.333-3.881 3.167-4.809l29.95-15.155-.794 7.93zM93.773 129.427l29.738 13.084.396 1.983h3.965l-.19-3.033c-.128-2.051-1.332-3.881-3.166-4.809l-29.157-15.155-1.586 7.93z"/>
                        <circle cx="52.14" cy="148.459" r="4.362" fill="#454B52"/>
                        <circle cx="102.496" cy="148.459" r="4.362" fill="#454B52"/>
                        <circle cx="125.89" cy="148.459" r="4.362" fill="#454B52"/>
                        <path fill="#454B52" d="M104.082 145.683l-3.172-.396-.793-3.172-10.706-13.085 4.759-4.758 8.468 12.872c.942 1.432 1.444 3.109 1.444 4.823v3.716z"/>
                        <path fill="#2D89FF" fill-rule="nonzero" d="M117.104 104.447h-52.61c-1.383 0-2.71-.55-3.689-1.528-.978-.978-1.528-2.305-1.528-3.689v-2.828c.001-2.426 1.085-4.725 2.956-6.27 8.88-7.34 16.07-13.581 25.989-13.084 8.57.43 19.404 11.216 28.747 14.543 3.219 1.16 5.361 4.218 5.352 7.64 0 1.383-.55 2.71-1.528 3.688-.978.978-2.305 1.528-3.689 1.528z"/>
                    </g>
                    <g fill-rule="nonzero" transform="translate(-595 -201) translate(595 201) translate(.5 11.5) translate(150.275)">
                        <path fill="#E6E6E6" d="M75.41 66.056H1.371C.614 66.055.001 65.44 0 64.684V1.371C0 .614.614.001 1.371 0h74.04c.756 0 1.37.614 1.37 1.371v63.313c0 .757-.614 1.37-1.37 1.372zM1.371.548c-.454 0-.823.369-.823.823v63.313c0 .455.369.823.823.823h74.04c.454 0 .822-.368.822-.823V1.371c0-.454-.368-.823-.823-.823H1.371z"/>
                        <circle cx="12.875" cy="54.797" r="5.585" fill="#E6E6E6"/>
                        <path fill="#E6E6E6" d="M25.774 51.073c-.514 0-.93.417-.93.931s.416.931.93.931h43.883c.514 0 .931-.417.931-.93 0-.515-.417-.932-.93-.932H25.773zM25.774 56.658c-.333 0-.64.177-.807.466-.167.288-.167.643 0 .931.167.288.474.466.807.465h18.883c.514 0 .93-.417.93-.93 0-.514-.416-.93-.93-.932H25.774z"/>
                        <path fill="#00DCB8" d="M93.001 43.973h-74.04c-.756-.001-1.37-.615-1.37-1.371V10.109c0-.757.614-1.37 1.37-1.37h74.04c.757 0 1.37.613 1.371 1.37v32.493c0 .756-.614 1.37-1.37 1.37z"/>
                        <path fill="#FFF" d="M34.04 20.064c-.514 0-.93.416-.93.93s.416.931.93.931h43.883c.514 0 .931-.417.931-.93 0-.515-.417-.931-.93-.931H34.04zM34.04 25.457c-.514 0-.93.417-.93.931s.416.93.93.93h43.883c.514 0 .931-.416.931-.93s-.417-.93-.93-.93H34.04zM34.04 30.786c-.514 0-.93.416-.93.93s.416.931.93.931h18.883c.514 0 .93-.417.93-.93 0-.515-.416-.931-.93-.931H34.04z"/>
                        <circle cx="93.138" cy="41.889" r="5.585" fill="#3F3D56"/>
                        <path fill="#FFF" d="M92.672 44.358L90.899 42.079 91.93 41.277 92.77 42.356 95.605 39.363 96.553 40.262z"/>
                    </g>
                </g>
            </g>
        </g>
    </g>
</svg>
