<svg xmlns="https://www.w3.org/2000/svg" width="27" height="27" viewBox="0 0 27 27" id="wsettingactive">
    <path fill="#95A1AC" fillRule="evenodd"
        d="M21.476 14.215c.043-.346.076-.691.076-1.059 0-.367-.033-.713-.076-1.059l2.28-1.782c.205-.163.26-.454.13-.692l-2.161-3.738c-.13-.238-.422-.324-.66-.238l-2.69 1.08c-.562-.432-1.167-.788-1.826-1.058l-.41-2.864c-.033-.259-.26-.453-.53-.453h-4.322c-.27 0-.497.194-.53.453l-.41 2.864c-.659.27-1.264.637-1.826 1.058l-2.69-1.08c-.248-.097-.53 0-.659.238L3.011 9.623c-.14.238-.076.53.13.692l2.28 1.782c-.044.346-.076.703-.076 1.06 0 .356.032.712.075 1.058l-2.28 1.783c-.205.162-.259.454-.129.691l2.161 3.739c.13.237.421.324.659.237l2.69-1.08c.562.432 1.167.789 1.826 1.059l.41 2.863c.033.26.26.454.53.454h4.322c.27 0 .497-.195.53-.454l.41-2.863c.66-.27 1.264-.638 1.826-1.06l2.69 1.081c.249.098.53 0 .66-.237l2.16-3.739c.13-.237.076-.53-.13-.691l-2.279-1.783zm-8.028 2.723c-2.085 0-3.781-1.697-3.781-3.782s1.696-3.781 3.781-3.781c2.086 0 3.782 1.696 3.782 3.781s-1.696 3.782-3.782 3.782z" />
</svg>