<svg xmlns="http://www.w3.org/2000/svg" width="27" height="25" viewBox="0 0 27 25">
    <g fill="none" fill-rule="evenodd">
        <g fill="#18B99A">
            <g>
                <g>
                    <g>
                        <path d="M13.481 2.604c3.79 0 6.862 2.892 6.862 6.458 0 2.946-2.095 5.43-4.958 6.207 3.282.568 6.127 2.587 7.586 5.49.288.573.028 1.256-.58 1.527-.608.27-1.333.026-1.62-.546-1.334-2.653-4.172-4.344-7.29-4.344-3.118 0-5.956 1.691-7.29 4.344-.287.572-1.012.816-1.62.546-.608-.27-.868-.954-.58-1.526 1.46-2.904 4.304-4.923 7.586-5.493-2.863-.775-4.958-3.26-4.958-6.205 0-3.566 3.072-6.458 6.862-6.458zm0 2.292c-2.445 0-4.427 1.865-4.427 4.166 0 2.302 1.982 4.167 4.427 4.167 2.445 0 4.427-1.865 4.427-4.167 0-2.3-1.982-4.166-4.427-4.166z" transform="translate(-370 -268) translate(330 182) translate(30 74) translate(10 12)"/>
                    </g>
                </g>
            </g>
        </g>
    </g>
</svg>
