<svg xmlns="https://www.w3.org/2000/svg" width="24" height="24" viewBox="0 0 24 24">
    <path fill="#95A1AC" fillRule="evenodd"
        d="M20.506 2.121l1.414 1.415L3.536 21.92 2.12 20.506 20.506 2.121zM22 7.07v10.86l-5.834-2.5v2.07c0 1.325-1.03 2.41-2.335 2.495l-.164.005H7.576l1.667-1.667h4.424c.425 0 .775-.318.827-.728l.006-.105-.001-4.422 1.667-1.667v2.205l4.167 1.787V9.596l-4.117 1.764 3.173-3.173L22 7.07zM13.667 5c.521 0 1.005.16 1.406.433l-1.249 1.249c-.05-.01-.104-.015-.157-.015H4.5c-.425 0-.775.318-.827.728l-.006.105-.001 9.34-1.516 1.516c-.08-.218-.129-.45-.145-.692L2 17.5v-10c0-1.325 1.032-2.41 2.336-2.495L4.5 5h9.167z" />
</svg>