<?xml version="1.0" encoding="utf-8"?>
<!-- Generator: Adobe Illustrator 16.0.0, SVG Export Plug-In . SVG Version: 6.00 Build 0)  -->
<!DOCTYPE svg PUBLIC "-//W3C//DTD SVG 1.1//EN" "http://www.w3.org/Graphics/SVG/1.1/DTD/svg11.dtd">
<svg version="1.1" id="Layer_1" xmlns="http://www.w3.org/2000/svg" xmlns:xlink="http://www.w3.org/1999/xlink" x="0px" y="0px"
	 width="36.083px" height="40px" viewBox="0 0 36.083 40" enable-background="new 0 0 36.083 40" xml:space="preserve">
<path id="Fill-7" fill="#FFFFFF" d="M31.266,24.258c-1.455-0.002-2.488-0.953-3.699-1.672s-2.545-1.227-3.928-1.496
	c-2.893-0.563-5.931-0.053-8.483,1.42c-2.582,1.492-4.558,3.902-5.503,6.732c-0.466,1.393-0.693,2.883-0.629,4.354
	c0.081,1.863,0.177,3.639-1.42,4.928c-1.356,1.094-3.297,1.244-4.805,0.373c-2.037-1.176-2.732-3.779-1.557-5.816
	c0.751-1.303,2.001-1.672,3.236-2.332c1.271-0.682,2.415-1.639,3.354-2.729c1.914-2.217,2.979-5.088,2.979-8.016
	c0-2.843-0.998-5.553-2.86-7.703c-0.908-1.047-1.982-1.942-3.14-2.699C3.531,8.764,2.042,8.318,1.237,6.926
	C0.062,4.893,0.758,2.285,2.795,1.112c2.039-1.176,4.641-0.479,5.819,1.556c0.698,1.207,0.458,2.597,0.412,3.951
	c-0.047,1.396,0.173,2.794,0.613,4.118c0.943,2.838,2.924,5.262,5.514,6.757c2.43,1.403,5.274,1.908,8.038,1.427
	c1.406-0.244,2.764-0.729,4.021-1.395c1.354-0.715,2.43-1.785,4.055-1.784c2.348,0,4.256,1.908,4.254,4.258
	C35.525,22.35,33.619,24.26,31.266,24.258"/>
</svg>
